M48
; DRILL file {KiCad (6.0.8)} date Fri 07 Oct 2022 03:24:08 PM CEST
; FORMAT={-:-/ absolute / inch / decimal}
; #@! TF.CreationDate,2022-10-07T15:24:08+02:00
; #@! TF.GenerationSoftware,Kicad,Pcbnew,(6.0.8)
; #@! TF.FileFunction,Plated,1,2,PTH
FMAT,2
INCH
; #@! TA.AperFunction,Plated,PTH,ComponentDrill
T1C0.0079
; #@! TA.AperFunction,Plated,PTH,ViaDrill
T2C0.0157
; #@! TA.AperFunction,Plated,PTH,ViaDrill
T3C0.0177
; #@! TA.AperFunction,Plated,PTH,ComponentDrill
T4C0.0236
; #@! TA.AperFunction,Plated,PTH,ComponentDrill
T5C0.0256
; #@! TA.AperFunction,Plated,PTH,ComponentDrill
T6C0.0374
; #@! TA.AperFunction,Plated,PTH,ComponentDrill
T7C0.0472
; #@! TA.AperFunction,Plated,PTH,ComponentDrill
T8C0.0630
; #@! TA.AperFunction,Plated,PTH,ComponentDrill
T9C0.0709
; #@! TA.AperFunction,Plated,PTH,ComponentDrill
T10C0.0709
%
G90
G05
T1
X0.3604Y1.1753
X0.3604Y1.1153
X0.3905Y1.2053
X0.3905Y1.1453
X0.3905Y1.0852
X0.4205Y1.1753
X0.4205Y1.1153
X0.4505Y1.2053
X0.4505Y1.1453
X0.4505Y1.0852
X0.4805Y1.1753
X0.4805Y1.1153
T2
X0.8445Y3.0236
T3
X-0.3543Y0.7913
X-0.3465Y3.1102
X-0.3425Y1.2795
X-0.3425Y1.0984
X-0.3386Y2.9291
X-0.3386Y2.7165
X-0.3386Y2.5276
X-0.3386Y2.3583
X-0.3386Y2.1772
X-0.3386Y1.6732
X-0.3386Y1.4567
X-0.3346Y2.0118
X-0.3346Y1.8268
X-0.2795Y1.5551
X-0.2717Y1.3661
X-0.2677Y1.1811
X-0.2638Y2.437
X-0.2598Y0.4921
X-0.248Y2.622
X-0.2402Y3.0276
X-0.2402Y2.815
X-0.2283Y1.6693
X-0.2126Y1.2756
X-0.21Y2.28
X-0.1969Y1.4567
X-0.1575Y2.7165
X-0.1535Y2.9252
X-0.1496Y1.3543
X-0.1378Y3.2874
X-0.1378Y1.7953
X-0.1299Y1.5472
X-0.122Y2.5276
X-0.122Y2.3661
X-0.1142Y0.2402
X-0.0787Y2.1181
X-0.06Y1.29
X-0.0354Y1.189
X-0.0315Y0.9961
X-0.02Y3.47
X-0.0197Y2.4528
X-0.0197Y0.1496
X-0.0157Y2.626
X-0.0124Y2.7524
X-0.0118Y3.1732
X0.03Y3.5
X0.0315Y2.2087
X0.0512Y1.5591
X0.0709Y2.5157
X0.0709Y2.3661
X0.0748Y0.2362
X0.0748Y0.0551
X0.1181Y2.7283
X0.1457Y1.7835
X0.1457Y0.8622
X0.1496Y2.4449
X0.16Y3.34
X0.185Y3.2441
X0.1929Y1.1654
X0.1969Y1.4488
X0.2008Y3.1417
X0.2008Y2.1908
X0.2559Y2.6732
X0.2835Y1.0039
X0.2874Y1.9921
X0.2913Y2.126
X0.2953Y2.2598
X0.3071Y1.3504
X0.33Y3.44
X0.3386Y2.9409
X0.3661Y2.7323
X0.3661Y2.5433
X0.38Y3.38
X0.3819Y2.189
X0.3858Y2.0551
X0.3858Y0.2638
X0.3976Y1.6654
X0.4Y3.43
X0.4173Y0.878
X0.4213Y1.4449
X0.46Y3.44
X0.4606Y2.811
X0.4606Y1.6772
X0.4685Y2.2638
X0.4685Y2.1299
X0.4724Y1.9882
X0.4724Y0.3307
X0.49Y3.49
X0.4921Y3.252
X0.5354Y3.2165
X0.5354Y1.6457
X0.5354Y1.3386
X0.5433Y1.0
X0.5472Y3.0157
X0.5787Y2.0472
X0.6142Y3.2953
X0.6142Y0.3268
X0.626Y1.185
X0.6417Y2.4252
X0.6417Y2.2638
X0.6417Y2.0
X0.6417Y1.4606
X0.6417Y0.8622
X0.6496Y2.7953
X0.6772Y3.3622
X0.6772Y3.1929
X0.689Y0.1811
X0.7087Y1.5787
X0.7126Y3.0315
X0.7126Y2.3622
X0.7126Y2.1732
X0.7165Y2.5
X0.7283Y1.6496
X0.7362Y0.2874
X0.7559Y3.0551
X0.77Y3.37
X0.7874Y1.6417
X0.7992Y3.0157
X0.8031Y1.9567
X0.81Y3.34
X0.811Y2.8189
X0.811Y1.1575
X0.8268Y3.2402
X0.8307Y1.7835
X0.8386Y2.1693
X0.8425Y0.3268
X0.8465Y1.3307
X0.8583Y1.9843
X0.8681Y3.2185
X0.8858Y1.5157
X0.8937Y2.0276
X0.9094Y2.7913
X0.91Y0.96
X0.9331Y1.4843
X0.9488Y2.1181
X0.9528Y3.1969
X0.9646Y1.0984
X0.9724Y2.8465
X0.9843Y0.4449
X0.9921Y3.0197
X0.9921Y1.0
X0.9961Y0.752
X1.0551Y1.3819
X1.0551Y1.1417
X1.063Y0.9055
X1.0709Y0.5984
X1.0866Y2.4528
X1.0945Y2.7047
X1.1102Y1.6339
X1.1181Y3.1181
T5
X0.2799Y3.3461
X0.5075Y3.3461
T6
X0.2441Y0.1575
X0.3425Y0.1575
X0.4409Y0.1575
X0.5394Y0.1575
X1.0707Y2.313
X1.0707Y2.2146
X1.0707Y2.1161
X1.0707Y2.0177
X1.0707Y1.9193
X1.0707Y1.8209
T7
X0.2929Y3.1261
X0.3929Y3.1261
X0.4929Y3.1261
X0.7366Y2.8824
X0.7366Y2.7824
X0.7366Y2.6824
T8
X0.2543Y2.5544
X0.2543Y2.3772
X0.5299Y2.5544
X0.5299Y2.3772
T9
X0.1437Y2.9792
X0.1437Y2.5855
X0.6417Y2.9792
X0.6417Y2.5855
T10
X0.2236Y2.7824
X0.5622Y2.7824
T4
G00X0.2236Y3.4752
M15
G01X0.2236Y3.5067
M16
G05
G00X0.2236Y3.3047
M15
G01X0.2236Y3.348
M16
G05
G00X0.5638Y3.4752
M15
G01X0.5638Y3.5067
M16
G05
G00X0.5638Y3.3047
M15
G01X0.5638Y3.348
M16
G05
T0
M30
