%TF.GenerationSoftware,KiCad,Pcbnew,(6.0.8)*%
%TF.CreationDate,2022-10-07T15:24:08+02:00*%
%TF.ProjectId,bobbycar-emergency-hardware,626f6262-7963-4617-922d-656d65726765,rev?*%
%TF.SameCoordinates,Original*%
%TF.FileFunction,Copper,L2,Bot*%
%TF.FilePolarity,Positive*%
%FSLAX46Y46*%
G04 Gerber Fmt 4.6, Leading zero omitted, Abs format (unit mm)*
G04 Created by KiCad (PCBNEW (6.0.8)) date 2022-10-07 15:24:08*
%MOMM*%
%LPD*%
G01*
G04 APERTURE LIST*
G04 Aperture macros list*
%AMRoundRect*
0 Rectangle with rounded corners*
0 $1 Rounding radius*
0 $2 $3 $4 $5 $6 $7 $8 $9 X,Y pos of 4 corners*
0 Add a 4 corners polygon primitive as box body*
4,1,4,$2,$3,$4,$5,$6,$7,$8,$9,$2,$3,0*
0 Add four circle primitives for the rounded corners*
1,1,$1+$1,$2,$3*
1,1,$1+$1,$4,$5*
1,1,$1+$1,$6,$7*
1,1,$1+$1,$8,$9*
0 Add four rect primitives between the rounded corners*
20,1,$1+$1,$2,$3,$4,$5,0*
20,1,$1+$1,$4,$5,$6,$7,0*
20,1,$1+$1,$6,$7,$8,$9,0*
20,1,$1+$1,$8,$9,$2,$3,0*%
G04 Aperture macros list end*
%TA.AperFunction,ComponentPad*%
%ADD10O,1.000000X1.800000*%
%TD*%
%TA.AperFunction,ComponentPad*%
%ADD11O,1.000000X2.100000*%
%TD*%
%TA.AperFunction,ComponentPad*%
%ADD12C,0.650000*%
%TD*%
%TA.AperFunction,ComponentPad*%
%ADD13C,1.800000*%
%TD*%
%TA.AperFunction,ComponentPad*%
%ADD14C,2.500000*%
%TD*%
%TA.AperFunction,ComponentPad*%
%ADD15C,2.200000*%
%TD*%
%TA.AperFunction,ComponentPad*%
%ADD16RoundRect,0.250000X-0.600000X-0.725000X0.600000X-0.725000X0.600000X0.725000X-0.600000X0.725000X0*%
%TD*%
%TA.AperFunction,ComponentPad*%
%ADD17O,1.700000X1.950000*%
%TD*%
%TA.AperFunction,ComponentPad*%
%ADD18RoundRect,0.250000X-0.725000X0.600000X-0.725000X-0.600000X0.725000X-0.600000X0.725000X0.600000X0*%
%TD*%
%TA.AperFunction,ComponentPad*%
%ADD19O,1.950000X1.700000*%
%TD*%
%TA.AperFunction,ComponentPad*%
%ADD20C,0.475000*%
%TD*%
%TA.AperFunction,ViaPad*%
%ADD21C,0.900000*%
%TD*%
%TA.AperFunction,ViaPad*%
%ADD22C,0.800000*%
%TD*%
%TA.AperFunction,Conductor*%
%ADD23C,0.300000*%
%TD*%
%TA.AperFunction,Conductor*%
%ADD24C,0.450000*%
%TD*%
%TA.AperFunction,Conductor*%
%ADD25C,0.250000*%
%TD*%
G04 APERTURE END LIST*
D10*
%TO.P,USBC1,3,SHIELD*%
%TO.N,GND*%
X5680000Y88670000D03*
%TO.P,USBC1,2,SHIELD*%
X14320000Y88670000D03*
D11*
%TO.P,USBC1,4,SHIELD*%
X5680000Y84490000D03*
%TO.P,USBC1,1,SHIELD*%
X14320000Y84490000D03*
D12*
%TO.P,USBC1,*%
%TO.N,*%
X7110000Y84990000D03*
X12890000Y84990000D03*
%TD*%
D13*
%TO.P,SW1,1,B*%
%TO.N,GND*%
X18710000Y68132000D03*
%TO.P,SW1,2,DTA*%
%TO.N,ANALOG_X*%
X18710000Y70672000D03*
%TO.P,SW1,3,A*%
%TO.N,+3V3*%
X18710000Y73212000D03*
%TO.P,SW1,4,A*%
X12520000Y79402000D03*
%TO.P,SW1,5,DTA*%
%TO.N,ANALOG_Y*%
X9980000Y79402000D03*
%TO.P,SW1,6,B*%
%TO.N,GND*%
X7440000Y79402000D03*
D14*
%TO.P,SW1,7,GND*%
X3650000Y75672000D03*
%TO.P,SW1,8,GND*%
X3650000Y65672000D03*
%TO.P,SW1,9,GND*%
X16300000Y65672000D03*
%TO.P,SW1,10,GND*%
X16300000Y75672000D03*
D15*
%TO.P,SW1,a,a*%
X6460000Y64882000D03*
%TO.P,SW1,c,c*%
X13460000Y64882000D03*
%TO.P,SW1,b,b*%
%TO.N,ANALOG_BUTTON*%
X6460000Y60382000D03*
%TO.P,SW1,d,d*%
X13460000Y60382000D03*
D13*
%TO.P,SW1,*%
%TO.N,*%
X5680000Y70672000D03*
X14280000Y70672000D03*
%TD*%
D16*
%TO.P,J1,1,Pin_1*%
%TO.N,GND*%
X6200000Y4000000D03*
D17*
%TO.P,J1,2,Pin_2*%
%TO.N,CANL*%
X8700000Y4000000D03*
%TO.P,J1,3,Pin_3*%
%TO.N,CANH*%
X11200000Y4000000D03*
%TO.P,J1,4,Pin_4*%
%TO.N,Net-(D1-Pad2)*%
X13700000Y4000000D03*
%TD*%
D18*
%TO.P,J2,1,Pin_1*%
%TO.N,GND*%
X27195000Y58750000D03*
D19*
%TO.P,J2,2,Pin_2*%
%TO.N,ESP_RX*%
X27195000Y56250000D03*
%TO.P,J2,3,Pin_3*%
%TO.N,ESP_TX*%
X27195000Y53750000D03*
%TO.P,J2,4,Pin_4*%
%TO.N,EN*%
X27195000Y51250000D03*
%TO.P,J2,5,Pin_5*%
%TO.N,IO0*%
X27195000Y48750000D03*
%TO.P,J2,6,Pin_6*%
%TO.N,Net-(D4-Pad2)*%
X27195000Y46250000D03*
%TD*%
D20*
%TO.P,U2,39,GND*%
%TO.N,GND*%
X11442500Y30615000D03*
X10680000Y28327500D03*
X10680000Y29852500D03*
X12205000Y29852500D03*
X12205000Y28327500D03*
X11442500Y29090000D03*
X9917500Y30615000D03*
X9155000Y28327500D03*
X9155000Y29852500D03*
X11442500Y27565000D03*
X9917500Y29090000D03*
X9917500Y27565000D03*
%TD*%
D21*
%TO.N,+3V3*%
X20574000Y84836000D03*
X-5334000Y57912000D03*
X5100000Y55646000D03*
X-1524000Y32766000D03*
X23114000Y24384000D03*
X-314500Y69910500D03*
%TO.N,GND*%
X12446000Y88646000D03*
X21100000Y45300000D03*
X-3300000Y39300000D03*
X1800000Y60100000D03*
X12000000Y50500000D03*
X28200000Y41500000D03*
X-3500000Y83500000D03*
X-8800000Y79000000D03*
X-5800000Y42400000D03*
X13600000Y34000000D03*
X18100000Y55200000D03*
X-8600000Y42500000D03*
X-6900000Y34700000D03*
X20600000Y71600000D03*
X-9000000Y20100000D03*
X20000000Y41700000D03*
X1900000Y6000000D03*
X7800000Y34300000D03*
X13600000Y41800000D03*
X-8500000Y46400000D03*
X23100000Y70900000D03*
X-400000Y66700000D03*
X16500000Y71000000D03*
X17500000Y4600000D03*
X-3100000Y64200000D03*
X3800000Y62100000D03*
X13800000Y25400000D03*
X25300000Y19100000D03*
X15900000Y30100000D03*
X-8600000Y55300000D03*
X11700000Y71400000D03*
X-8600000Y59900000D03*
X-8500000Y51100000D03*
X25200000Y76700000D03*
X7500000Y57400000D03*
X1900000Y1400000D03*
X-8600000Y74400000D03*
X-6100000Y71500000D03*
X12000000Y8400000D03*
X16300000Y50800000D03*
X20600000Y29400000D03*
X26800000Y35100000D03*
X6500000Y67900000D03*
X800000Y56100000D03*
X-2900000Y6100000D03*
X16300000Y37100000D03*
X11684000Y87376000D03*
X10600000Y22300000D03*
X27200000Y15200000D03*
X21500000Y33800000D03*
X-800000Y25300000D03*
X-500000Y62300000D03*
X27000000Y23000000D03*
X-6300000Y66600000D03*
X3700000Y21900000D03*
X7300000Y50600000D03*
X10700000Y36700000D03*
X-6600000Y12500000D03*
X11900000Y57500000D03*
X18700000Y7300000D03*
X-3500000Y45600000D03*
X9800000Y52200000D03*
X9800000Y6700000D03*
X4900000Y29600000D03*
X-5400000Y32400000D03*
X-6100000Y76900000D03*
X27800000Y68700000D03*
X-5000000Y37000000D03*
X21400000Y8300000D03*
X25200000Y25400000D03*
X1800000Y63900000D03*
X5100000Y79800000D03*
X-2000000Y53800000D03*
X762000Y88900000D03*
X5000000Y36800000D03*
X-500000Y3800000D03*
X15600000Y8300000D03*
X9300000Y64600000D03*
X3000000Y69300000D03*
X-3900000Y74300000D03*
X-8700000Y32500000D03*
X18000000Y40100000D03*
X-300000Y80600000D03*
X11900000Y54100000D03*
X-7100000Y39500000D03*
X-3800000Y34400000D03*
X16300000Y21900000D03*
X9700000Y55600000D03*
X14700000Y52000000D03*
X25000000Y11300000D03*
X-8600000Y69000000D03*
X-508000Y88138000D03*
X-6800000Y30000000D03*
X18200000Y63500000D03*
X9652000Y85852000D03*
X-3100000Y60100000D03*
X8382000Y87376000D03*
X-4000000Y69000000D03*
X-8700000Y27900000D03*
X-8600000Y64200000D03*
X18100000Y60000000D03*
X7400000Y54000000D03*
X4064000Y84836000D03*
X-8600000Y37000000D03*
X26800000Y29000000D03*
X16300000Y57500000D03*
X-900000Y30200000D03*
X8600000Y74700000D03*
X22050000Y81750000D03*
X10160000Y87122000D03*
X21300000Y55100000D03*
X16300000Y61600000D03*
X9300000Y69400000D03*
X17200000Y85400000D03*
X13900000Y76600000D03*
X7200000Y25500000D03*
X27600000Y62300000D03*
X-6700000Y61900000D03*
%TO.N,+5V*%
X19558000Y85598000D03*
X4700000Y82400000D03*
D22*
X21450000Y76800000D03*
D21*
X12500000Y82600000D03*
%TO.N,Net-(C14-Pad2)*%
X21000000Y82300000D03*
X18100000Y77000000D03*
%TO.N,ESP_RX*%
X15600000Y83700000D03*
X10100000Y42300000D03*
%TO.N,ESP_TX*%
X20300000Y76600000D03*
X11700000Y42600000D03*
X24100000Y53800000D03*
X17200000Y81100000D03*
%TO.N,EN*%
X24500000Y27900000D03*
%TO.N,IO0*%
X28400000Y79200000D03*
X1300000Y39600000D03*
X3700000Y45300000D03*
%TO.N,RTS*%
X24700000Y72300000D03*
X24200000Y81200000D03*
%TO.N,ANALOG_X*%
X23700000Y37700000D03*
X22700000Y51500000D03*
%TO.N,ANALOG_Y*%
X21800000Y50400000D03*
X22500000Y38500000D03*
%TO.N,ANALOG_BUTTON*%
X18500000Y41900000D03*
X20400000Y49700000D03*
%TO.N,USB_DN*%
X19200000Y77600000D03*
X13600000Y81700000D03*
%TD*%
D23*
%TO.N,+3V3*%
X5100000Y39390000D02*
X-1524000Y32766000D01*
X22860000Y82550000D02*
X20574000Y84836000D01*
X12520000Y74470000D02*
X11250000Y73200000D01*
X22860000Y76200000D02*
X22860000Y82550000D01*
X5100000Y55646000D02*
X5100000Y39390000D01*
X-5334000Y64891000D02*
X-314500Y69910500D01*
X18710000Y73212000D02*
X19872000Y73212000D01*
X-5334000Y57912000D02*
X-5334000Y64891000D01*
X11100000Y73200000D02*
X2999000Y73200000D01*
X19812000Y32766000D02*
X22606000Y29972000D01*
X2999000Y73200000D02*
X2987000Y73212000D01*
X23114000Y28448000D02*
X23114000Y24384000D01*
X19872000Y73212000D02*
X22860000Y76200000D01*
X-5334000Y57912000D02*
X2834000Y57912000D01*
X22606000Y29972000D02*
X23114000Y29464000D01*
X12520000Y79402000D02*
X12520000Y74470000D01*
X-1524000Y32766000D02*
X19812000Y32766000D01*
X2834000Y57912000D02*
X5100000Y55646000D01*
X18710000Y73212000D02*
X11262000Y73212000D01*
X23114000Y29464000D02*
X23114000Y28448000D01*
X2987000Y73212000D02*
X-314500Y69910500D01*
X11262000Y73212000D02*
X11250000Y73200000D01*
X11250000Y73200000D02*
X11100000Y73200000D01*
D24*
%TO.N,+5V*%
X19558000Y85598000D02*
X19558000Y82296000D01*
X19558000Y82296000D02*
X19558000Y80792000D01*
X19254000Y82600000D02*
X19558000Y82296000D01*
X4900000Y82600000D02*
X4700000Y82400000D01*
X21350000Y76900000D02*
X21450000Y76800000D01*
X21350000Y79000000D02*
X21350000Y76900000D01*
X19558000Y80792000D02*
X21350000Y79000000D01*
X12500000Y82600000D02*
X4900000Y82600000D01*
X12500000Y82600000D02*
X19254000Y82600000D01*
D23*
%TO.N,Net-(C14-Pad2)*%
X22300000Y80331818D02*
X22300000Y76500000D01*
X21800000Y75917818D02*
X21682182Y75800000D01*
X21682182Y75800000D02*
X20100000Y75800000D01*
X20100000Y75800000D02*
X19300000Y75800000D01*
X19300000Y75800000D02*
X18100000Y77000000D01*
X22300000Y76417818D02*
X21800000Y75917818D01*
X21000000Y81631818D02*
X22300000Y80331818D01*
X22300000Y76500000D02*
X22300000Y76417818D01*
X21000000Y82300000D02*
X21000000Y81631818D01*
%TO.N,ESP_RX*%
X15600000Y86200000D02*
X15600000Y83700000D01*
X16700000Y87300000D02*
X15600000Y86200000D01*
X20700000Y88300000D02*
X19000000Y88300000D01*
X23300000Y63500000D02*
X23300000Y68100000D01*
X10162563Y42300000D02*
X10100000Y42300000D01*
X27000000Y71800000D02*
X27000000Y81300000D01*
X27195000Y56250000D02*
X24150000Y56250000D01*
X27000000Y81300000D02*
X27000000Y82000000D01*
X26400000Y71200000D02*
X27000000Y71800000D01*
X24100000Y56200000D02*
X18800000Y50900000D01*
X17700000Y88300000D02*
X16700000Y87300000D01*
X24150000Y56250000D02*
X24100000Y56200000D01*
X18762563Y50900000D02*
X10162563Y42300000D01*
X23300000Y57000000D02*
X23300000Y63500000D01*
X27000000Y82000000D02*
X22100000Y86900000D01*
X18800000Y50900000D02*
X18762563Y50900000D01*
X23300000Y68100000D02*
X26400000Y71200000D01*
X24100000Y56200000D02*
X23300000Y57000000D01*
X22100000Y86900000D02*
X20700000Y88300000D01*
X19000000Y88300000D02*
X17700000Y88300000D01*
%TO.N,ESP_TX*%
X22900000Y53800000D02*
X24100000Y53800000D01*
X17200000Y81100000D02*
X20300000Y78000000D01*
X27195000Y53750000D02*
X24150000Y53750000D01*
X24150000Y53750000D02*
X24100000Y53800000D01*
X11700000Y42600000D02*
X22900000Y53800000D01*
X20300000Y78000000D02*
X20300000Y76600000D01*
%TO.N,EN*%
X25000000Y28400000D02*
X25000000Y49055000D01*
X24500000Y27900000D02*
X25000000Y28400000D01*
X25000000Y49055000D02*
X27195000Y51250000D01*
%TO.N,IO0*%
X1300000Y42900000D02*
X3700000Y45300000D01*
X29200000Y78400000D02*
X28400000Y79200000D01*
X29200000Y50755000D02*
X29200000Y78400000D01*
X1300000Y39600000D02*
X1300000Y42900000D01*
X27195000Y48750000D02*
X29200000Y50755000D01*
%TO.N,RTS*%
X25100000Y72300000D02*
X24700000Y72300000D01*
X26300000Y73500000D02*
X25100000Y72300000D01*
X24200000Y81200000D02*
X24200000Y79600000D01*
X26300000Y77500000D02*
X26300000Y73500000D01*
X24200000Y79600000D02*
X26300000Y77500000D01*
D25*
%TO.N,ANALOG_X*%
X23700000Y37700000D02*
X23700000Y50500000D01*
X23700000Y50500000D02*
X22700000Y51500000D01*
%TO.N,ANALOG_Y*%
X22800000Y49400000D02*
X21800000Y50400000D01*
X22500000Y38500000D02*
X22800000Y38800000D01*
X22800000Y38800000D02*
X22800000Y46300000D01*
X22800000Y46300000D02*
X22800000Y49400000D01*
%TO.N,ANALOG_BUTTON*%
X18500000Y47800000D02*
X20400000Y49700000D01*
X18500000Y41900000D02*
X18500000Y47800000D01*
D23*
%TO.N,USB_DN*%
X19100000Y77600000D02*
X19200000Y77600000D01*
X15000000Y81700000D02*
X19100000Y77600000D01*
X13600000Y81700000D02*
X15000000Y81700000D01*
%TD*%
%TA.AperFunction,Conductor*%
%TO.N,GND*%
G36*
X4652126Y89471498D02*
G01*
X4698619Y89417842D01*
X4708723Y89347568D01*
X4704107Y89327401D01*
X4691119Y89286459D01*
X4688570Y89274468D01*
X4672393Y89130239D01*
X4672000Y89123215D01*
X4672000Y88942115D01*
X4676475Y88926876D01*
X4677865Y88925671D01*
X4685548Y88924000D01*
X6669885Y88924000D01*
X6685124Y88928475D01*
X6686329Y88929865D01*
X6688000Y88937548D01*
X6688000Y89116657D01*
X6687699Y89122805D01*
X6674188Y89260603D01*
X6671806Y89272635D01*
X6654763Y89329081D01*
X6654222Y89400075D01*
X6692149Y89460093D01*
X6756503Y89490077D01*
X6775385Y89491500D01*
X13224005Y89491500D01*
X13292126Y89471498D01*
X13338619Y89417842D01*
X13348723Y89347568D01*
X13344107Y89327401D01*
X13331119Y89286459D01*
X13328570Y89274468D01*
X13312393Y89130239D01*
X13312000Y89123215D01*
X13312000Y88942115D01*
X13316475Y88926876D01*
X13317865Y88925671D01*
X13325548Y88924000D01*
X15309885Y88924000D01*
X15325124Y88928475D01*
X15326329Y88929865D01*
X15328000Y88937548D01*
X15328000Y89116657D01*
X15327699Y89122805D01*
X15314188Y89260603D01*
X15311806Y89272635D01*
X15294763Y89329081D01*
X15294222Y89400075D01*
X15332149Y89460093D01*
X15396503Y89490077D01*
X15415385Y89491500D01*
X19737183Y89491500D01*
X19805304Y89471498D01*
X19826278Y89454595D01*
X20107278Y89173595D01*
X20141304Y89111283D01*
X20136239Y89040468D01*
X20093692Y88983632D01*
X20027172Y88958821D01*
X20018183Y88958500D01*
X17782060Y88958500D01*
X17770203Y88959059D01*
X17762463Y88960789D01*
X17754538Y88960540D01*
X17754537Y88960540D01*
X17691599Y88958562D01*
X17687641Y88958500D01*
X17658568Y88958500D01*
X17654634Y88958003D01*
X17654632Y88958003D01*
X17654189Y88957947D01*
X17642354Y88957015D01*
X17609564Y88955984D01*
X17604089Y88955812D01*
X17604088Y88955812D01*
X17596169Y88955563D01*
X17576444Y88949832D01*
X17575571Y88949579D01*
X17556218Y88945571D01*
X17552743Y88945132D01*
X17534936Y88942882D01*
X17527568Y88939965D01*
X17527565Y88939964D01*
X17491982Y88925875D01*
X17480747Y88922029D01*
X17444016Y88911358D01*
X17444013Y88911357D01*
X17436400Y88909145D01*
X17417935Y88898225D01*
X17400195Y88889534D01*
X17380244Y88881635D01*
X17342874Y88854484D01*
X17332952Y88847967D01*
X17300023Y88828493D01*
X17300019Y88828490D01*
X17293193Y88824453D01*
X17278029Y88809289D01*
X17262996Y88796449D01*
X17245643Y88783841D01*
X17216198Y88748248D01*
X17208208Y88739468D01*
X15192395Y86723655D01*
X15183615Y86715665D01*
X15183613Y86715663D01*
X15176920Y86711416D01*
X15171494Y86705638D01*
X15171493Y86705637D01*
X15128396Y86659743D01*
X15125641Y86656901D01*
X15105073Y86636333D01*
X15102356Y86632830D01*
X15094648Y86623805D01*
X15063028Y86590133D01*
X15059207Y86583182D01*
X15059206Y86583181D01*
X15052697Y86571342D01*
X15041843Y86554818D01*
X15034018Y86544729D01*
X15028696Y86537868D01*
X15025549Y86530596D01*
X15025548Y86530594D01*
X15010346Y86495465D01*
X15005124Y86484805D01*
X14982876Y86444337D01*
X14977541Y86423559D01*
X14971142Y86404869D01*
X14962620Y86385176D01*
X14961380Y86377345D01*
X14955394Y86339552D01*
X14952987Y86327929D01*
X14941500Y86283188D01*
X14941500Y86261741D01*
X14939949Y86242031D01*
X14936594Y86220848D01*
X14937340Y86212957D01*
X14940941Y86174862D01*
X14941500Y86163004D01*
X14941500Y86061285D01*
X14921498Y85993164D01*
X14867842Y85946671D01*
X14797568Y85936567D01*
X14755572Y85950449D01*
X14717929Y85970802D01*
X14706619Y85975556D01*
X14591308Y86011250D01*
X14577205Y86011456D01*
X14574000Y86004701D01*
X14574000Y84362000D01*
X14553998Y84293879D01*
X14500342Y84247386D01*
X14448000Y84236000D01*
X14192000Y84236000D01*
X14123879Y84256002D01*
X14077386Y84309658D01*
X14066000Y84362000D01*
X14066000Y85997924D01*
X14062027Y86011455D01*
X14054232Y86012575D01*
X13946479Y85980862D01*
X13935111Y85976269D01*
X13770846Y85890393D01*
X13760585Y85883679D01*
X13616127Y85767532D01*
X13607368Y85758954D01*
X13547414Y85687504D01*
X13488304Y85648177D01*
X13417317Y85647051D01*
X13376831Y85666559D01*
X13376749Y85666619D01*
X13309046Y85715808D01*
X13303018Y85718492D01*
X13303016Y85718493D01*
X13155015Y85784387D01*
X13155014Y85784387D01*
X13148984Y85787072D01*
X13063294Y85805286D01*
X12984061Y85822128D01*
X12984057Y85822128D01*
X12977604Y85823500D01*
X12802396Y85823500D01*
X12795943Y85822128D01*
X12795939Y85822128D01*
X12716706Y85805286D01*
X12631016Y85787072D01*
X12624987Y85784387D01*
X12624985Y85784387D01*
X12476985Y85718493D01*
X12476983Y85718492D01*
X12470955Y85715808D01*
X12329208Y85612823D01*
X12324795Y85607921D01*
X12324793Y85607920D01*
X12322438Y85605304D01*
X12211970Y85482618D01*
X12208670Y85476902D01*
X12208667Y85476898D01*
X12129031Y85338962D01*
X12124366Y85330882D01*
X12070223Y85164249D01*
X12069533Y85157683D01*
X12069532Y85157679D01*
X12055385Y85023074D01*
X12051909Y84990000D01*
X12052599Y84983435D01*
X12068095Y84836000D01*
X12070223Y84815751D01*
X12124366Y84649118D01*
X12127669Y84643397D01*
X12208667Y84503102D01*
X12208670Y84503098D01*
X12211970Y84497382D01*
X12216388Y84492475D01*
X12216389Y84492474D01*
X12318869Y84378660D01*
X12329208Y84367177D01*
X12350748Y84351528D01*
X12430094Y84293879D01*
X12470954Y84264192D01*
X12476982Y84261508D01*
X12476984Y84261507D01*
X12619817Y84197914D01*
X12631016Y84192928D01*
X12716706Y84174714D01*
X12795939Y84157872D01*
X12795943Y84157872D01*
X12802396Y84156500D01*
X12977604Y84156500D01*
X12984057Y84157872D01*
X12984061Y84157872D01*
X13068843Y84175893D01*
X13148984Y84192928D01*
X13149360Y84193095D01*
X13218035Y84195056D01*
X13278832Y84158392D01*
X13310155Y84094679D01*
X13312000Y84073196D01*
X13312000Y83893343D01*
X13312301Y83887195D01*
X13325812Y83749397D01*
X13328195Y83737362D01*
X13381767Y83559924D01*
X13386443Y83548579D01*
X13402355Y83518652D01*
X13416674Y83449114D01*
X13391125Y83382874D01*
X13333820Y83340962D01*
X13291103Y83333500D01*
X13162488Y83333500D01*
X13094367Y83353502D01*
X13082173Y83362415D01*
X13043329Y83394549D01*
X13038580Y83398478D01*
X13033161Y83401408D01*
X13033158Y83401410D01*
X12925721Y83459500D01*
X12873231Y83487881D01*
X12693666Y83543466D01*
X12687541Y83544110D01*
X12687540Y83544110D01*
X12512852Y83562471D01*
X12512851Y83562471D01*
X12506724Y83563115D01*
X12429673Y83556103D01*
X12325665Y83546637D01*
X12325662Y83546636D01*
X12319526Y83546078D01*
X12313620Y83544340D01*
X12313616Y83544339D01*
X12231603Y83520201D01*
X12139202Y83493006D01*
X11972621Y83405920D01*
X11917128Y83361302D01*
X11851508Y83334207D01*
X11838178Y83333500D01*
X6709959Y83333500D01*
X6641838Y83353502D01*
X6595345Y83407158D01*
X6585241Y83477432D01*
X6599544Y83520201D01*
X6608005Y83535592D01*
X6612834Y83546858D01*
X6668880Y83723538D01*
X6671430Y83735532D01*
X6687607Y83879761D01*
X6688000Y83886785D01*
X6688000Y84073196D01*
X6708002Y84141317D01*
X6761658Y84187810D01*
X6831932Y84197914D01*
X6848440Y84194075D01*
X6851016Y84192928D01*
X6931157Y84175893D01*
X7015939Y84157872D01*
X7015943Y84157872D01*
X7022396Y84156500D01*
X7197604Y84156500D01*
X7204057Y84157872D01*
X7204061Y84157872D01*
X7283294Y84174714D01*
X7368984Y84192928D01*
X7380183Y84197914D01*
X7523016Y84261507D01*
X7523018Y84261508D01*
X7529046Y84264192D01*
X7569907Y84293879D01*
X7649252Y84351528D01*
X7670792Y84367177D01*
X7681132Y84378660D01*
X7783611Y84492474D01*
X7783612Y84492475D01*
X7788030Y84497382D01*
X7791330Y84503098D01*
X7791333Y84503102D01*
X7872331Y84643397D01*
X7875634Y84649118D01*
X7929777Y84815751D01*
X7931906Y84836000D01*
X7947401Y84983435D01*
X7948091Y84990000D01*
X7944615Y85023074D01*
X7930468Y85157679D01*
X7930467Y85157683D01*
X7929777Y85164249D01*
X7875634Y85330882D01*
X7870969Y85338962D01*
X7791333Y85476898D01*
X7791330Y85476902D01*
X7788030Y85482618D01*
X7677562Y85605304D01*
X7675207Y85607920D01*
X7675205Y85607921D01*
X7670792Y85612823D01*
X7636951Y85637410D01*
X7534388Y85711927D01*
X7534387Y85711928D01*
X7529046Y85715808D01*
X7523018Y85718492D01*
X7523016Y85718493D01*
X7375015Y85784387D01*
X7375014Y85784387D01*
X7368984Y85787072D01*
X7283294Y85805286D01*
X7204061Y85822128D01*
X7204057Y85822128D01*
X7197604Y85823500D01*
X7022396Y85823500D01*
X7015943Y85822128D01*
X7015939Y85822128D01*
X6936706Y85805286D01*
X6851016Y85787072D01*
X6844987Y85784387D01*
X6844985Y85784387D01*
X6696985Y85718493D01*
X6696983Y85718492D01*
X6690955Y85715808D01*
X6685614Y85711928D01*
X6685613Y85711927D01*
X6623252Y85666619D01*
X6556384Y85642760D01*
X6487233Y85658841D01*
X6451548Y85688920D01*
X6402607Y85748928D01*
X6393959Y85757637D01*
X6251144Y85875784D01*
X6240973Y85882644D01*
X6077924Y85970804D01*
X6066619Y85975556D01*
X5951308Y86011250D01*
X5937205Y86011456D01*
X5934000Y86004701D01*
X5934000Y84362000D01*
X5913998Y84293879D01*
X5860342Y84247386D01*
X5808000Y84236000D01*
X4690115Y84236000D01*
X4674876Y84231525D01*
X4673671Y84230135D01*
X4672000Y84222452D01*
X4672000Y83893343D01*
X4672301Y83887195D01*
X4685812Y83749397D01*
X4688195Y83737362D01*
X4741767Y83559924D01*
X4746443Y83548579D01*
X4749639Y83542568D01*
X4763958Y83473030D01*
X4738409Y83406790D01*
X4681104Y83364878D01*
X4649807Y83357935D01*
X4525665Y83346637D01*
X4525662Y83346636D01*
X4519526Y83346078D01*
X4513620Y83344340D01*
X4513616Y83344339D01*
X4380278Y83305095D01*
X4339202Y83293006D01*
X4172621Y83205920D01*
X4026128Y83088136D01*
X4022170Y83083418D01*
X4022167Y83083416D01*
X3960069Y83009410D01*
X3905302Y82944141D01*
X3902338Y82938749D01*
X3902335Y82938745D01*
X3843682Y82832054D01*
X3814746Y82779420D01*
X3812885Y82773553D01*
X3812884Y82773551D01*
X3794331Y82715064D01*
X3757909Y82600248D01*
X3736956Y82413448D01*
X3737472Y82407304D01*
X3751431Y82241073D01*
X3752685Y82226135D01*
X3754384Y82220211D01*
X3792329Y82087881D01*
X3804497Y82045445D01*
X3807312Y82039968D01*
X3807313Y82039965D01*
X3830653Y81994550D01*
X3890418Y81878260D01*
X3894241Y81873436D01*
X3894244Y81873432D01*
X3980395Y81764738D01*
X4007177Y81730948D01*
X4011871Y81726953D01*
X4122275Y81632992D01*
X4150324Y81609120D01*
X4155702Y81606114D01*
X4155704Y81606113D01*
X4202265Y81580091D01*
X4314409Y81517416D01*
X4493180Y81459330D01*
X4679830Y81437073D01*
X4685965Y81437545D01*
X4685967Y81437545D01*
X4861105Y81451021D01*
X4861109Y81451022D01*
X4867247Y81451494D01*
X4967265Y81479420D01*
X5042350Y81500384D01*
X5042353Y81500385D01*
X5048294Y81502044D01*
X5053798Y81504824D01*
X5053800Y81504825D01*
X5210574Y81584017D01*
X5210576Y81584018D01*
X5216075Y81586796D01*
X5364199Y81702523D01*
X5373862Y81713717D01*
X5468046Y81822831D01*
X5527699Y81861328D01*
X5563427Y81866500D01*
X11836544Y81866500D01*
X11904665Y81846498D01*
X11918208Y81836453D01*
X11950324Y81809120D01*
X11955702Y81806114D01*
X11955704Y81806113D01*
X12032367Y81763268D01*
X12114409Y81717416D01*
X12293180Y81659330D01*
X12479830Y81637073D01*
X12485965Y81637545D01*
X12485967Y81637545D01*
X12507577Y81639208D01*
X12517686Y81639986D01*
X12587141Y81625269D01*
X12637613Y81575338D01*
X12651283Y81537105D01*
X12652169Y81532278D01*
X12652685Y81526135D01*
X12668075Y81472465D01*
X12685010Y81413406D01*
X12704497Y81345445D01*
X12707312Y81339968D01*
X12707313Y81339965D01*
X12734495Y81287074D01*
X12790418Y81178260D01*
X12794241Y81173436D01*
X12794244Y81173432D01*
X12856356Y81095067D01*
X12907177Y81030948D01*
X12911871Y81026953D01*
X12911875Y81026949D01*
X12949802Y80994671D01*
X12988716Y80935289D01*
X12989347Y80864295D01*
X12951496Y80804230D01*
X12887180Y80774164D01*
X12846044Y80774670D01*
X12658095Y80808149D01*
X12658089Y80808150D01*
X12653006Y80809055D01*
X12580096Y80809946D01*
X12426581Y80811821D01*
X12426579Y80811821D01*
X12421411Y80811884D01*
X12192464Y80776850D01*
X11972314Y80704894D01*
X11967726Y80702506D01*
X11967722Y80702504D01*
X11781168Y80605390D01*
X11766872Y80597948D01*
X11762739Y80594845D01*
X11762736Y80594843D01*
X11638731Y80501737D01*
X11581655Y80458883D01*
X11421639Y80291436D01*
X11354306Y80192729D01*
X11299397Y80147729D01*
X11228872Y80139558D01*
X11165125Y80170812D01*
X11144428Y80195295D01*
X11102571Y80259996D01*
X11099764Y80264335D01*
X10943887Y80435642D01*
X10939836Y80438841D01*
X10939832Y80438845D01*
X10766177Y80575989D01*
X10766172Y80575992D01*
X10762123Y80579190D01*
X10757607Y80581683D01*
X10757604Y80581685D01*
X10563879Y80688627D01*
X10563875Y80688629D01*
X10559355Y80691124D01*
X10554486Y80692848D01*
X10554482Y80692850D01*
X10345903Y80766712D01*
X10345899Y80766713D01*
X10341028Y80768438D01*
X10335935Y80769345D01*
X10335932Y80769346D01*
X10118095Y80808149D01*
X10118089Y80808150D01*
X10113006Y80809055D01*
X10040096Y80809946D01*
X9886581Y80811821D01*
X9886579Y80811821D01*
X9881411Y80811884D01*
X9652464Y80776850D01*
X9432314Y80704894D01*
X9427726Y80702506D01*
X9427722Y80702504D01*
X9241168Y80605390D01*
X9226872Y80597948D01*
X9222739Y80594845D01*
X9222736Y80594843D01*
X9098731Y80501737D01*
X9041655Y80458883D01*
X8881639Y80291436D01*
X8860192Y80259996D01*
X8814002Y80192284D01*
X8759090Y80147282D01*
X8688565Y80139111D01*
X8624819Y80170366D01*
X8614979Y80182006D01*
X8598538Y80196165D01*
X8588973Y80191762D01*
X7812021Y79414811D01*
X7804408Y79400868D01*
X7804539Y79399034D01*
X7808790Y79392420D01*
X8586307Y78614904D01*
X8598313Y78608348D01*
X8624948Y78628696D01*
X8625827Y78627546D01*
X8662672Y78656266D01*
X8733376Y78662711D01*
X8796340Y78629908D01*
X8816432Y78604926D01*
X8836800Y78571687D01*
X8836806Y78571679D01*
X8839501Y78567281D01*
X8991147Y78392216D01*
X9169349Y78244270D01*
X9369322Y78127416D01*
X9585694Y78044791D01*
X9590760Y78043760D01*
X9590761Y78043760D01*
X9643846Y78032960D01*
X9812656Y77998615D01*
X9943324Y77993824D01*
X10038949Y77990317D01*
X10038953Y77990317D01*
X10044113Y77990128D01*
X10049233Y77990784D01*
X10049235Y77990784D01*
X10122291Y78000143D01*
X10273847Y78019558D01*
X10278795Y78021043D01*
X10278802Y78021044D01*
X10490747Y78084631D01*
X10495690Y78086114D01*
X10579639Y78127240D01*
X10699049Y78185738D01*
X10699052Y78185740D01*
X10703684Y78188009D01*
X10892243Y78322506D01*
X11056303Y78485995D01*
X11059319Y78490192D01*
X11059326Y78490200D01*
X11146960Y78612156D01*
X11202954Y78655804D01*
X11273658Y78662250D01*
X11336622Y78629447D01*
X11356715Y78604464D01*
X11376800Y78571687D01*
X11376806Y78571679D01*
X11379501Y78567281D01*
X11531147Y78392216D01*
X11709349Y78244270D01*
X11799070Y78191842D01*
X11847794Y78140204D01*
X11861500Y78083054D01*
X11861500Y74794950D01*
X11841498Y74726829D01*
X11824595Y74705854D01*
X11014144Y73895404D01*
X10951832Y73861379D01*
X10925049Y73858500D01*
X4495161Y73858500D01*
X4427040Y73878502D01*
X4380547Y73932158D01*
X4370443Y74002432D01*
X4399937Y74067012D01*
X4445424Y74100268D01*
X4459732Y74106415D01*
X4468008Y74110724D01*
X4682249Y74243300D01*
X4689188Y74248342D01*
X4697518Y74260981D01*
X4691456Y74271334D01*
X3662812Y75299978D01*
X3648868Y75307592D01*
X3647035Y75307461D01*
X3640420Y75303210D01*
X2612270Y74275060D01*
X2605612Y74262867D01*
X2614325Y74251347D01*
X2712018Y74179716D01*
X2719928Y74174773D01*
X2874495Y74093451D01*
X2925467Y74044031D01*
X2941630Y73974899D01*
X2917851Y73908003D01*
X2861680Y73864582D01*
X2847472Y73860246D01*
X2842211Y73859749D01*
X2787133Y73839920D01*
X2779614Y73837477D01*
X2731009Y73823356D01*
X2731007Y73823355D01*
X2723400Y73821145D01*
X2715622Y73816545D01*
X2694177Y73806454D01*
X2685671Y73803392D01*
X2679115Y73798937D01*
X2679116Y73798937D01*
X2637254Y73770487D01*
X2630578Y73766250D01*
X2580193Y73736453D01*
X2573809Y73730069D01*
X2555537Y73714952D01*
X2548065Y73709874D01*
X2542821Y73703926D01*
X2542820Y73703925D01*
X2509354Y73665965D01*
X2503935Y73660195D01*
X-247877Y70908383D01*
X-310189Y70874357D01*
X-325549Y70871997D01*
X-391907Y70865958D01*
X-488835Y70857137D01*
X-488838Y70857136D01*
X-494974Y70856578D01*
X-500880Y70854840D01*
X-500884Y70854839D01*
X-634222Y70815595D01*
X-675298Y70803506D01*
X-841879Y70716420D01*
X-988372Y70598636D01*
X-1109198Y70454641D01*
X-1112162Y70449249D01*
X-1112165Y70449245D01*
X-1151081Y70378456D01*
X-1199754Y70289920D01*
X-1256591Y70110748D01*
X-1257277Y70104629D01*
X-1275756Y69939884D01*
X-1277544Y69923948D01*
X-1278644Y69924071D01*
X-1297809Y69862012D01*
X-1313753Y69842507D01*
X-5741605Y65414655D01*
X-5750385Y65406665D01*
X-5750387Y65406663D01*
X-5757080Y65402416D01*
X-5762506Y65396638D01*
X-5762507Y65396637D01*
X-5805604Y65350743D01*
X-5808359Y65347901D01*
X-5828927Y65327333D01*
X-5831644Y65323830D01*
X-5839352Y65314805D01*
X-5870972Y65281133D01*
X-5874793Y65274182D01*
X-5874794Y65274181D01*
X-5881303Y65262342D01*
X-5892157Y65245818D01*
X-5899982Y65235729D01*
X-5905304Y65228868D01*
X-5908451Y65221596D01*
X-5908452Y65221594D01*
X-5923654Y65186465D01*
X-5928876Y65175805D01*
X-5951124Y65135337D01*
X-5956459Y65114559D01*
X-5962858Y65095869D01*
X-5971380Y65076176D01*
X-5972620Y65068345D01*
X-5978606Y65030552D01*
X-5981013Y65018929D01*
X-5992500Y64974188D01*
X-5992500Y64952741D01*
X-5994051Y64933031D01*
X-5997406Y64911848D01*
X-5993373Y64869188D01*
X-5993059Y64865862D01*
X-5992500Y64854004D01*
X-5992500Y58664316D01*
X-6012502Y58596195D01*
X-6021977Y58583326D01*
X-6128698Y58456141D01*
X-6131662Y58450749D01*
X-6131665Y58450745D01*
X-6192268Y58340507D01*
X-6219254Y58291420D01*
X-6276091Y58112248D01*
X-6297044Y57925448D01*
X-6281315Y57738135D01*
X-6229503Y57557445D01*
X-6226688Y57551968D01*
X-6226687Y57551965D01*
X-6180080Y57461277D01*
X-6143582Y57390260D01*
X-6139759Y57385436D01*
X-6139756Y57385432D01*
X-6050888Y57273310D01*
X-6026823Y57242948D01*
X-6022129Y57238953D01*
X-5891648Y57127905D01*
X-5883676Y57121120D01*
X-5878298Y57118114D01*
X-5878296Y57118113D01*
X-5813779Y57082056D01*
X-5719591Y57029416D01*
X-5540820Y56971330D01*
X-5354170Y56949073D01*
X-5348035Y56949545D01*
X-5348033Y56949545D01*
X-5172895Y56963021D01*
X-5172891Y56963022D01*
X-5166753Y56963494D01*
X-5080155Y56987673D01*
X-4991650Y57012384D01*
X-4991647Y57012385D01*
X-4985706Y57014044D01*
X-4980202Y57016824D01*
X-4980200Y57016825D01*
X-4823426Y57096017D01*
X-4823424Y57096018D01*
X-4817925Y57098796D01*
X-4669801Y57214523D01*
X-4666089Y57218824D01*
X-4603112Y57251239D01*
X-4579347Y57253500D01*
X2509050Y57253500D01*
X2577171Y57233498D01*
X2598145Y57216595D01*
X4102670Y55712070D01*
X4136696Y55649758D01*
X4139133Y55633519D01*
X4145761Y55554595D01*
X4152685Y55472135D01*
X4204497Y55291445D01*
X4207312Y55285968D01*
X4207313Y55285965D01*
X4259479Y55184461D01*
X4290418Y55124260D01*
X4294241Y55119436D01*
X4294244Y55119432D01*
X4342390Y55058688D01*
X4407109Y54977034D01*
X4407177Y54976948D01*
X4407161Y54976935D01*
X4439069Y54915995D01*
X4441500Y54891364D01*
X4441500Y46197853D01*
X4421498Y46129732D01*
X4367842Y46083239D01*
X4297568Y46073135D01*
X4245043Y46093394D01*
X4243324Y46094554D01*
X4238580Y46098478D01*
X4073231Y46187881D01*
X3893666Y46243466D01*
X3887541Y46244110D01*
X3887540Y46244110D01*
X3712852Y46262471D01*
X3712851Y46262471D01*
X3706724Y46263115D01*
X3629673Y46256103D01*
X3525665Y46246637D01*
X3525662Y46246636D01*
X3519526Y46246078D01*
X3513620Y46244340D01*
X3513616Y46244339D01*
X3380278Y46205095D01*
X3339202Y46193006D01*
X3172621Y46105920D01*
X3026128Y45988136D01*
X3022170Y45983418D01*
X3022167Y45983416D01*
X2958416Y45907440D01*
X2905302Y45844141D01*
X2902338Y45838749D01*
X2902335Y45838745D01*
X2849231Y45742148D01*
X2814746Y45679420D01*
X2757909Y45500248D01*
X2736956Y45313448D01*
X2735856Y45313571D01*
X2716691Y45251512D01*
X2700747Y45232007D01*
X892395Y43423655D01*
X883615Y43415665D01*
X883613Y43415663D01*
X876920Y43411416D01*
X871494Y43405638D01*
X871493Y43405637D01*
X828396Y43359743D01*
X825641Y43356901D01*
X805073Y43336333D01*
X802356Y43332830D01*
X794648Y43323805D01*
X763028Y43290133D01*
X759207Y43283182D01*
X759206Y43283181D01*
X752697Y43271342D01*
X741843Y43254818D01*
X735498Y43246637D01*
X728696Y43237868D01*
X725549Y43230596D01*
X725548Y43230594D01*
X710346Y43195465D01*
X705124Y43184805D01*
X682876Y43144337D01*
X677541Y43123559D01*
X671142Y43104869D01*
X662620Y43085176D01*
X661380Y43077345D01*
X655394Y43039552D01*
X652987Y43027929D01*
X641500Y42983188D01*
X641500Y42961741D01*
X639949Y42942031D01*
X636594Y42920848D01*
X637340Y42912957D01*
X640941Y42874862D01*
X641500Y42863004D01*
X641500Y40352316D01*
X621498Y40284195D01*
X612023Y40271326D01*
X505302Y40144141D01*
X502338Y40138749D01*
X502335Y40138745D01*
X496176Y40127541D01*
X414746Y39979420D01*
X357909Y39800248D01*
X336956Y39613448D01*
X352685Y39426135D01*
X366762Y39377043D01*
X401379Y39256320D01*
X404497Y39245445D01*
X407312Y39239968D01*
X407313Y39239965D01*
X459348Y39138716D01*
X490418Y39078260D01*
X494241Y39073436D01*
X494244Y39073432D01*
X586688Y38956799D01*
X607177Y38930948D01*
X750324Y38809120D01*
X755702Y38806114D01*
X755704Y38806113D01*
X832366Y38763268D01*
X914409Y38717416D01*
X1093180Y38659330D01*
X1279830Y38637073D01*
X1285965Y38637545D01*
X1285967Y38637545D01*
X1461105Y38651021D01*
X1461109Y38651022D01*
X1467247Y38651494D01*
X1552378Y38675263D01*
X1642350Y38700384D01*
X1642353Y38700385D01*
X1648294Y38702044D01*
X1653798Y38704824D01*
X1653800Y38704825D01*
X1810574Y38784017D01*
X1810576Y38784018D01*
X1816075Y38786796D01*
X1964199Y38902523D01*
X1968225Y38907187D01*
X2082994Y39040148D01*
X2082995Y39040150D01*
X2087023Y39044816D01*
X2179870Y39208256D01*
X2239203Y39386618D01*
X2262762Y39573108D01*
X2263138Y39600000D01*
X2244795Y39787074D01*
X2190465Y39967023D01*
X2102218Y40132992D01*
X1986857Y40274440D01*
X1959303Y40339872D01*
X1958500Y40354075D01*
X1958500Y42575050D01*
X1978502Y42643171D01*
X1995405Y42664145D01*
X3634416Y44303156D01*
X3696728Y44337182D01*
X3713844Y44339690D01*
X3861105Y44351021D01*
X3861109Y44351022D01*
X3867247Y44351494D01*
X3952378Y44375263D01*
X4042350Y44400384D01*
X4042353Y44400385D01*
X4048294Y44402044D01*
X4053798Y44404824D01*
X4053800Y44404825D01*
X4210574Y44484017D01*
X4210576Y44484018D01*
X4216075Y44486796D01*
X4237929Y44503870D01*
X4303920Y44530047D01*
X4373591Y44516390D01*
X4424818Y44467234D01*
X4441500Y44404580D01*
X4441500Y39714950D01*
X4421498Y39646829D01*
X4404595Y39625855D01*
X-1457377Y33763883D01*
X-1519689Y33729857D01*
X-1535049Y33727497D01*
X-1601407Y33721458D01*
X-1698335Y33712637D01*
X-1698338Y33712636D01*
X-1704474Y33712078D01*
X-1710380Y33710340D01*
X-1710384Y33710339D01*
X-1843722Y33671095D01*
X-1884798Y33659006D01*
X-2051379Y33571920D01*
X-2197872Y33454136D01*
X-2201830Y33449418D01*
X-2201833Y33449416D01*
X-2243104Y33400231D01*
X-2318698Y33310141D01*
X-2321662Y33304749D01*
X-2321665Y33304745D01*
X-2382268Y33194507D01*
X-2409254Y33145420D01*
X-2466091Y32966248D01*
X-2487044Y32779448D01*
X-2471315Y32592135D01*
X-2419503Y32411445D01*
X-2333582Y32244260D01*
X-2329759Y32239436D01*
X-2329756Y32239432D01*
X-2226096Y32108648D01*
X-2216823Y32096948D01*
X-2212129Y32092953D01*
X-2185858Y32070595D01*
X-2073676Y31975120D01*
X-2068298Y31972114D01*
X-2068296Y31972113D01*
X-1991633Y31929268D01*
X-1909591Y31883416D01*
X-1730820Y31825330D01*
X-1544170Y31803073D01*
X-1538035Y31803545D01*
X-1538033Y31803545D01*
X-1362895Y31817021D01*
X-1362891Y31817022D01*
X-1356753Y31817494D01*
X-1271622Y31841263D01*
X-1181650Y31866384D01*
X-1181647Y31866385D01*
X-1175706Y31868044D01*
X-1170202Y31870824D01*
X-1170200Y31870825D01*
X-1013426Y31950017D01*
X-1013424Y31950018D01*
X-1007925Y31952796D01*
X-859801Y32068523D01*
X-856089Y32072824D01*
X-793112Y32105239D01*
X-769347Y32107500D01*
X19487050Y32107500D01*
X19555171Y32087498D01*
X19576145Y32070595D01*
X22081547Y29565193D01*
X22264797Y29381944D01*
X22418595Y29228146D01*
X22452621Y29165834D01*
X22455500Y29139051D01*
X22455500Y25136316D01*
X22435498Y25068195D01*
X22426023Y25055326D01*
X22319302Y24928141D01*
X22316338Y24922749D01*
X22316335Y24922745D01*
X22310176Y24911541D01*
X22228746Y24763420D01*
X22171909Y24584248D01*
X22150956Y24397448D01*
X22166685Y24210135D01*
X22218497Y24029445D01*
X22221312Y24023968D01*
X22221313Y24023965D01*
X22301603Y23867737D01*
X22304418Y23862260D01*
X22308241Y23857436D01*
X22308244Y23857432D01*
X22334625Y23824148D01*
X22421177Y23714948D01*
X22564324Y23593120D01*
X22569702Y23590114D01*
X22569704Y23590113D01*
X22646366Y23547268D01*
X22728409Y23501416D01*
X22907180Y23443330D01*
X23093830Y23421073D01*
X23099965Y23421545D01*
X23099967Y23421545D01*
X23275105Y23435021D01*
X23275109Y23435022D01*
X23281247Y23435494D01*
X23366378Y23459263D01*
X23456350Y23484384D01*
X23456353Y23484385D01*
X23462294Y23486044D01*
X23467798Y23488824D01*
X23467800Y23488825D01*
X23624574Y23568017D01*
X23624576Y23568018D01*
X23630075Y23570796D01*
X23778199Y23686523D01*
X23782225Y23691187D01*
X23896994Y23824148D01*
X23896995Y23824150D01*
X23901023Y23828816D01*
X23993870Y23992256D01*
X24053203Y24170618D01*
X24076762Y24357108D01*
X24077138Y24384000D01*
X24058795Y24571074D01*
X24004465Y24751023D01*
X23916218Y24916992D01*
X23800857Y25058440D01*
X23773303Y25123872D01*
X23772500Y25138075D01*
X23772500Y26993741D01*
X23792502Y27061862D01*
X23846158Y27108355D01*
X23916432Y27118459D01*
X23959970Y27103729D01*
X24114409Y27017416D01*
X24293180Y26959330D01*
X24479830Y26937073D01*
X24485965Y26937545D01*
X24485967Y26937545D01*
X24661105Y26951021D01*
X24661109Y26951022D01*
X24667247Y26951494D01*
X24752378Y26975263D01*
X24842350Y27000384D01*
X24842353Y27000385D01*
X24848294Y27002044D01*
X24853798Y27004824D01*
X24853800Y27004825D01*
X25010574Y27084017D01*
X25010576Y27084018D01*
X25016075Y27086796D01*
X25164199Y27202523D01*
X25178894Y27219547D01*
X25282994Y27340148D01*
X25282995Y27340150D01*
X25287023Y27344816D01*
X25302377Y27371843D01*
X25363407Y27479276D01*
X25379870Y27508256D01*
X25439203Y27686618D01*
X25462762Y27873108D01*
X25462884Y27881834D01*
X25483837Y27949669D01*
X25493379Y27962119D01*
X25494927Y27963667D01*
X25497647Y27967174D01*
X25505353Y27976196D01*
X25507812Y27978815D01*
X25536972Y28009867D01*
X25542272Y28019507D01*
X25547303Y28028658D01*
X25558157Y28045182D01*
X25566445Y28055868D01*
X25571304Y28062132D01*
X25574452Y28069406D01*
X25589654Y28104535D01*
X25594876Y28115195D01*
X25613305Y28148716D01*
X25613306Y28148718D01*
X25617124Y28155663D01*
X25622459Y28176441D01*
X25628858Y28195131D01*
X25637380Y28214824D01*
X25644606Y28260448D01*
X25647013Y28272071D01*
X25656528Y28309132D01*
X25658500Y28316812D01*
X25658500Y28338259D01*
X25660051Y28357969D01*
X25662166Y28371323D01*
X25663406Y28379152D01*
X25659059Y28425141D01*
X25658500Y28436996D01*
X25658500Y45506821D01*
X25678502Y45574942D01*
X25732158Y45621435D01*
X25802432Y45631539D01*
X25867012Y45602045D01*
X25892219Y45572187D01*
X25968377Y45446683D01*
X25971874Y45442653D01*
X26058438Y45342897D01*
X26119477Y45272555D01*
X26123608Y45269168D01*
X26293627Y45129760D01*
X26293633Y45129756D01*
X26297755Y45126376D01*
X26302391Y45123737D01*
X26302394Y45123735D01*
X26411422Y45061673D01*
X26498114Y45012325D01*
X26714825Y44933663D01*
X26720074Y44932714D01*
X26720077Y44932713D01*
X26937608Y44893377D01*
X26937615Y44893376D01*
X26941692Y44892639D01*
X26959414Y44891803D01*
X26964356Y44891570D01*
X26964363Y44891570D01*
X26965844Y44891500D01*
X27377890Y44891500D01*
X27444809Y44897178D01*
X27544409Y44905629D01*
X27544413Y44905630D01*
X27549720Y44906080D01*
X27554875Y44907418D01*
X27554881Y44907419D01*
X27767703Y44962657D01*
X27767707Y44962658D01*
X27772872Y44963999D01*
X27777738Y44966191D01*
X27777741Y44966192D01*
X27978202Y45056493D01*
X27983075Y45058688D01*
X28174319Y45187441D01*
X28341135Y45346576D01*
X28478754Y45531542D01*
X28583240Y45737051D01*
X28651607Y45957227D01*
X28666969Y46073135D01*
X28681198Y46180489D01*
X28681198Y46180494D01*
X28681898Y46185774D01*
X28681627Y46193006D01*
X28673449Y46410827D01*
X28673249Y46416158D01*
X28625907Y46641791D01*
X28541224Y46856221D01*
X28532078Y46871294D01*
X28424390Y47048757D01*
X28421623Y47053317D01*
X28334755Y47153424D01*
X28274023Y47223412D01*
X28274021Y47223414D01*
X28270523Y47227445D01*
X28228970Y47261516D01*
X28096373Y47370240D01*
X28096367Y47370244D01*
X28092245Y47373624D01*
X28060750Y47391552D01*
X28011445Y47442632D01*
X27997583Y47512262D01*
X28023566Y47578333D01*
X28052716Y47605573D01*
X28068398Y47616130D01*
X28174319Y47687441D01*
X28341135Y47846576D01*
X28478754Y48031542D01*
X28583240Y48237051D01*
X28651607Y48457227D01*
X28681898Y48685774D01*
X28673249Y48916158D01*
X28625907Y49141791D01*
X28623947Y49146754D01*
X28622413Y49151867D01*
X28624816Y49152588D01*
X28619311Y49212834D01*
X28653841Y49277581D01*
X29276405Y49900145D01*
X29338717Y49934171D01*
X29409532Y49929106D01*
X29466368Y49886559D01*
X29491179Y49820039D01*
X29491500Y49811050D01*
X29491500Y10262817D01*
X29471498Y10194696D01*
X29454595Y10173722D01*
X19826278Y545405D01*
X19763966Y511379D01*
X19737183Y508500D01*
X262817Y508500D01*
X194696Y528502D01*
X173722Y545405D01*
X-2508778Y3227905D01*
X4842001Y3227905D01*
X4842338Y3221386D01*
X4852257Y3125794D01*
X4855149Y3112400D01*
X4906588Y2958216D01*
X4912761Y2945038D01*
X4998063Y2807193D01*
X5007099Y2795792D01*
X5121829Y2681261D01*
X5133240Y2672249D01*
X5271243Y2587184D01*
X5284424Y2581037D01*
X5438710Y2529862D01*
X5452086Y2526995D01*
X5546438Y2517328D01*
X5552854Y2517000D01*
X5927885Y2517000D01*
X5943124Y2521475D01*
X5944329Y2522865D01*
X5946000Y2530548D01*
X5946000Y2535116D01*
X6454000Y2535116D01*
X6458475Y2519877D01*
X6459865Y2518672D01*
X6467548Y2517001D01*
X6847095Y2517001D01*
X6853614Y2517338D01*
X6949206Y2527257D01*
X6962600Y2530149D01*
X7116784Y2581588D01*
X7129962Y2587761D01*
X7267807Y2673063D01*
X7279208Y2682099D01*
X7393739Y2796829D01*
X7402753Y2808243D01*
X7488723Y2947713D01*
X7541495Y2995207D01*
X7611566Y3006631D01*
X7676690Y2978357D01*
X7687149Y2968574D01*
X7796576Y2853865D01*
X7981542Y2716246D01*
X7986293Y2713830D01*
X7986297Y2713828D01*
X8048704Y2682099D01*
X8187051Y2611760D01*
X8192145Y2610178D01*
X8192148Y2610177D01*
X8392020Y2548115D01*
X8407227Y2543393D01*
X8412516Y2542692D01*
X8630489Y2513802D01*
X8630494Y2513802D01*
X8635774Y2513102D01*
X8641103Y2513302D01*
X8641105Y2513302D01*
X8750966Y2517426D01*
X8866158Y2521751D01*
X8871468Y2522865D01*
X9086572Y2567998D01*
X9091791Y2569093D01*
X9096750Y2571051D01*
X9096752Y2571052D01*
X9301256Y2651815D01*
X9301258Y2651816D01*
X9306221Y2653776D01*
X9405184Y2713828D01*
X9498757Y2770610D01*
X9498756Y2770610D01*
X9503317Y2773377D01*
X9543497Y2808243D01*
X9673412Y2920977D01*
X9673414Y2920979D01*
X9677445Y2924477D01*
X9744807Y3006631D01*
X9820240Y3098627D01*
X9820244Y3098633D01*
X9823624Y3102755D01*
X9841552Y3134250D01*
X9892632Y3183555D01*
X9962262Y3197417D01*
X10028333Y3171434D01*
X10055573Y3142284D01*
X10137441Y3020681D01*
X10141120Y3016824D01*
X10141122Y3016822D01*
X10197030Y2958216D01*
X10296576Y2853865D01*
X10481542Y2716246D01*
X10486293Y2713830D01*
X10486297Y2713828D01*
X10548704Y2682099D01*
X10687051Y2611760D01*
X10692145Y2610178D01*
X10692148Y2610177D01*
X10892020Y2548115D01*
X10907227Y2543393D01*
X10912516Y2542692D01*
X11130489Y2513802D01*
X11130494Y2513802D01*
X11135774Y2513102D01*
X11141103Y2513302D01*
X11141105Y2513302D01*
X11250966Y2517426D01*
X11366158Y2521751D01*
X11371468Y2522865D01*
X11586572Y2567998D01*
X11591791Y2569093D01*
X11596750Y2571051D01*
X11596752Y2571052D01*
X11801256Y2651815D01*
X11801258Y2651816D01*
X11806221Y2653776D01*
X11905184Y2713828D01*
X11998757Y2770610D01*
X11998756Y2770610D01*
X12003317Y2773377D01*
X12043497Y2808243D01*
X12173412Y2920977D01*
X12173414Y2920979D01*
X12177445Y2924477D01*
X12244807Y3006631D01*
X12320240Y3098627D01*
X12320244Y3098633D01*
X12323624Y3102755D01*
X12341552Y3134250D01*
X12392632Y3183555D01*
X12462262Y3197417D01*
X12528333Y3171434D01*
X12555573Y3142284D01*
X12637441Y3020681D01*
X12641120Y3016824D01*
X12641122Y3016822D01*
X12697030Y2958216D01*
X12796576Y2853865D01*
X12981542Y2716246D01*
X12986293Y2713830D01*
X12986297Y2713828D01*
X13048704Y2682099D01*
X13187051Y2611760D01*
X13192145Y2610178D01*
X13192148Y2610177D01*
X13392020Y2548115D01*
X13407227Y2543393D01*
X13412516Y2542692D01*
X13630489Y2513802D01*
X13630494Y2513802D01*
X13635774Y2513102D01*
X13641103Y2513302D01*
X13641105Y2513302D01*
X13750966Y2517426D01*
X13866158Y2521751D01*
X13871468Y2522865D01*
X14086572Y2567998D01*
X14091791Y2569093D01*
X14096750Y2571051D01*
X14096752Y2571052D01*
X14301256Y2651815D01*
X14301258Y2651816D01*
X14306221Y2653776D01*
X14405184Y2713828D01*
X14498757Y2770610D01*
X14498756Y2770610D01*
X14503317Y2773377D01*
X14543497Y2808243D01*
X14673412Y2920977D01*
X14673414Y2920979D01*
X14677445Y2924477D01*
X14744807Y3006631D01*
X14820240Y3098627D01*
X14820244Y3098633D01*
X14823624Y3102755D01*
X14829115Y3112400D01*
X14935032Y3298471D01*
X14937675Y3303114D01*
X15016337Y3519825D01*
X15039023Y3645280D01*
X15056623Y3742608D01*
X15056624Y3742615D01*
X15057361Y3746692D01*
X15058500Y3770844D01*
X15058500Y4182890D01*
X15043920Y4354720D01*
X15042582Y4359875D01*
X15042581Y4359881D01*
X14987343Y4572703D01*
X14987342Y4572707D01*
X14986001Y4577872D01*
X14891312Y4788075D01*
X14762559Y4979319D01*
X14603424Y5146135D01*
X14418458Y5283754D01*
X14413707Y5286170D01*
X14413703Y5286172D01*
X14291731Y5348185D01*
X14212949Y5388240D01*
X14207855Y5389822D01*
X14207852Y5389823D01*
X13997871Y5455024D01*
X13992773Y5456607D01*
X13987484Y5457308D01*
X13769511Y5486198D01*
X13769506Y5486198D01*
X13764226Y5486898D01*
X13758897Y5486698D01*
X13758895Y5486698D01*
X13660368Y5482999D01*
X13533842Y5478249D01*
X13528623Y5477154D01*
X13508849Y5473005D01*
X13308209Y5430907D01*
X13303250Y5428949D01*
X13303248Y5428948D01*
X13098744Y5348185D01*
X13098742Y5348184D01*
X13093779Y5346224D01*
X13089220Y5343457D01*
X13089217Y5343456D01*
X12990832Y5283754D01*
X12896683Y5226623D01*
X12892653Y5223126D01*
X12799484Y5142278D01*
X12722555Y5075523D01*
X12719168Y5071392D01*
X12579760Y4901373D01*
X12579756Y4901367D01*
X12576376Y4897245D01*
X12558448Y4865750D01*
X12507368Y4816445D01*
X12437738Y4802583D01*
X12371667Y4828566D01*
X12344427Y4857716D01*
X12265539Y4974892D01*
X12262559Y4979319D01*
X12103424Y5146135D01*
X11918458Y5283754D01*
X11913707Y5286170D01*
X11913703Y5286172D01*
X11791731Y5348185D01*
X11712949Y5388240D01*
X11707855Y5389822D01*
X11707852Y5389823D01*
X11497871Y5455024D01*
X11492773Y5456607D01*
X11487484Y5457308D01*
X11269511Y5486198D01*
X11269506Y5486198D01*
X11264226Y5486898D01*
X11258897Y5486698D01*
X11258895Y5486698D01*
X11160368Y5482999D01*
X11033842Y5478249D01*
X11028623Y5477154D01*
X11008849Y5473005D01*
X10808209Y5430907D01*
X10803250Y5428949D01*
X10803248Y5428948D01*
X10598744Y5348185D01*
X10598742Y5348184D01*
X10593779Y5346224D01*
X10589220Y5343457D01*
X10589217Y5343456D01*
X10490832Y5283754D01*
X10396683Y5226623D01*
X10392653Y5223126D01*
X10299484Y5142278D01*
X10222555Y5075523D01*
X10219168Y5071392D01*
X10079760Y4901373D01*
X10079756Y4901367D01*
X10076376Y4897245D01*
X10058448Y4865750D01*
X10007368Y4816445D01*
X9937738Y4802583D01*
X9871667Y4828566D01*
X9844427Y4857716D01*
X9765539Y4974892D01*
X9762559Y4979319D01*
X9603424Y5146135D01*
X9418458Y5283754D01*
X9413707Y5286170D01*
X9413703Y5286172D01*
X9291731Y5348185D01*
X9212949Y5388240D01*
X9207855Y5389822D01*
X9207852Y5389823D01*
X8997871Y5455024D01*
X8992773Y5456607D01*
X8987484Y5457308D01*
X8769511Y5486198D01*
X8769506Y5486198D01*
X8764226Y5486898D01*
X8758897Y5486698D01*
X8758895Y5486698D01*
X8660368Y5482999D01*
X8533842Y5478249D01*
X8528623Y5477154D01*
X8508849Y5473005D01*
X8308209Y5430907D01*
X8303250Y5428949D01*
X8303248Y5428948D01*
X8098744Y5348185D01*
X8098742Y5348184D01*
X8093779Y5346224D01*
X8089220Y5343457D01*
X8089217Y5343456D01*
X7990832Y5283754D01*
X7896683Y5226623D01*
X7892653Y5223126D01*
X7799484Y5142278D01*
X7722555Y5075523D01*
X7719168Y5071392D01*
X7692994Y5039471D01*
X7634334Y4999476D01*
X7563364Y4997545D01*
X7502616Y5034290D01*
X7488416Y5053059D01*
X7401937Y5192807D01*
X7392901Y5204208D01*
X7278171Y5318739D01*
X7266760Y5327751D01*
X7128757Y5412816D01*
X7115576Y5418963D01*
X6961290Y5470138D01*
X6947914Y5473005D01*
X6853562Y5482672D01*
X6847145Y5483000D01*
X6472115Y5483000D01*
X6456876Y5478525D01*
X6455671Y5477135D01*
X6454000Y5469452D01*
X6454000Y2535116D01*
X5946000Y2535116D01*
X5946000Y3727885D01*
X5941525Y3743124D01*
X5940135Y3744329D01*
X5932452Y3746000D01*
X4860116Y3746000D01*
X4844877Y3741525D01*
X4843672Y3740135D01*
X4842001Y3732452D01*
X4842001Y3227905D01*
X-2508778Y3227905D01*
X-3552988Y4272115D01*
X4842000Y4272115D01*
X4846475Y4256876D01*
X4847865Y4255671D01*
X4855548Y4254000D01*
X5927885Y4254000D01*
X5943124Y4258475D01*
X5944329Y4259865D01*
X5946000Y4267548D01*
X5946000Y5464884D01*
X5941525Y5480123D01*
X5940135Y5481328D01*
X5932452Y5482999D01*
X5552905Y5482999D01*
X5546386Y5482662D01*
X5450794Y5472743D01*
X5437400Y5469851D01*
X5283216Y5418412D01*
X5270038Y5412239D01*
X5132193Y5326937D01*
X5120792Y5317901D01*
X5006261Y5203171D01*
X4997249Y5191760D01*
X4912184Y5053757D01*
X4906037Y5040576D01*
X4854862Y4886290D01*
X4851995Y4872914D01*
X4842328Y4778562D01*
X4842000Y4772146D01*
X4842000Y4272115D01*
X-3552988Y4272115D01*
X-9454595Y10173722D01*
X-9488621Y10236034D01*
X-9491500Y10262817D01*
X-9491500Y20030002D01*
X-4000000Y20030002D01*
X-3999999Y9250000D01*
X-3986451Y9250000D01*
X7980672Y9250001D01*
X24000001Y9250002D01*
X23999999Y20030001D01*
X12019328Y20030001D01*
X-3981885Y20030002D01*
X-4000000Y20030002D01*
X-9491500Y20030002D01*
X-9491500Y26894580D01*
X9588575Y26894580D01*
X9591358Y26890862D01*
X9729400Y26839525D01*
X9742991Y26836136D01*
X9894808Y26815879D01*
X9908804Y26815586D01*
X10061331Y26829467D01*
X10075055Y26832284D01*
X10220719Y26879613D01*
X10233469Y26885397D01*
X10235299Y26886488D01*
X10242802Y26894580D01*
X11113575Y26894580D01*
X11116358Y26890862D01*
X11254400Y26839525D01*
X11267991Y26836136D01*
X11419808Y26815879D01*
X11433804Y26815586D01*
X11586331Y26829467D01*
X11600055Y26832284D01*
X11745719Y26879613D01*
X11758469Y26885397D01*
X11760299Y26886488D01*
X11769887Y26896829D01*
X11766381Y26905243D01*
X11455312Y27216312D01*
X11441368Y27223926D01*
X11439533Y27223795D01*
X11432923Y27219547D01*
X11120334Y26906959D01*
X11113575Y26894580D01*
X10242802Y26894580D01*
X10244887Y26896829D01*
X10241381Y26905243D01*
X9930312Y27216312D01*
X9916368Y27223926D01*
X9914533Y27223795D01*
X9907923Y27219547D01*
X9595334Y26906959D01*
X9588575Y26894580D01*
X-9491500Y26894580D01*
X-9491500Y27657080D01*
X8826075Y27657080D01*
X8828858Y27653362D01*
X8966900Y27602025D01*
X8980491Y27598636D01*
X9068542Y27586888D01*
X9133419Y27558053D01*
X9172407Y27498720D01*
X9177277Y27474291D01*
X9182990Y27416029D01*
X9185901Y27402336D01*
X9234246Y27257007D01*
X9239213Y27246257D01*
X9248988Y27237320D01*
X9257607Y27240982D01*
X9568816Y27552192D01*
X9575193Y27563871D01*
X10258574Y27563871D01*
X10258705Y27562033D01*
X10262955Y27555421D01*
X10575122Y27243253D01*
X10587501Y27236494D01*
X10607006Y27251095D01*
X10673527Y27275906D01*
X10742901Y27260814D01*
X10767533Y27243221D01*
X10773988Y27237320D01*
X10782607Y27240982D01*
X11093816Y27552192D01*
X11100193Y27563871D01*
X11783574Y27563871D01*
X11783705Y27562033D01*
X11787955Y27555421D01*
X12100122Y27243253D01*
X12112501Y27236494D01*
X12116317Y27239351D01*
X12166646Y27371843D01*
X12170128Y27385404D01*
X12183321Y27479276D01*
X12212609Y27543950D01*
X12272213Y27582523D01*
X12296676Y27587222D01*
X12348840Y27591969D01*
X12362555Y27594784D01*
X12508219Y27642113D01*
X12520969Y27647897D01*
X12522799Y27648988D01*
X12532387Y27659329D01*
X12528881Y27667743D01*
X12217812Y27978812D01*
X12203868Y27986426D01*
X12202033Y27986295D01*
X12195423Y27982047D01*
X11817505Y27604130D01*
X11817503Y27604128D01*
X11791185Y27577809D01*
X11783574Y27563871D01*
X11100193Y27563871D01*
X11101427Y27566130D01*
X11101295Y27567966D01*
X11097046Y27574578D01*
X10719130Y27952495D01*
X10719128Y27952497D01*
X10692809Y27978815D01*
X10678871Y27986426D01*
X10677033Y27986295D01*
X10670421Y27982045D01*
X10292505Y27604130D01*
X10292503Y27604128D01*
X10266185Y27577809D01*
X10258574Y27563871D01*
X9575193Y27563871D01*
X9576427Y27566130D01*
X9576295Y27567966D01*
X9572046Y27574578D01*
X9194130Y27952495D01*
X9194128Y27952497D01*
X9167809Y27978815D01*
X9153871Y27986426D01*
X9152033Y27986295D01*
X9145421Y27982045D01*
X8832834Y27669459D01*
X8826075Y27657080D01*
X-9491500Y27657080D01*
X-9491500Y28330963D01*
X8405544Y28330963D01*
X8420490Y28178530D01*
X8423401Y28164836D01*
X8471746Y28019507D01*
X8476713Y28008757D01*
X8486488Y27999820D01*
X8495107Y28003482D01*
X8806316Y28314692D01*
X8812693Y28326371D01*
X9496074Y28326371D01*
X9496205Y28324532D01*
X9500453Y28317923D01*
X9530005Y28288370D01*
X9530004Y28288370D01*
X9530005Y28288369D01*
X9904690Y27913685D01*
X9918630Y27906073D01*
X9920466Y27906205D01*
X9927078Y27910454D01*
X10304995Y28288370D01*
X10304997Y28288372D01*
X10331315Y28314691D01*
X10337693Y28326371D01*
X11021074Y28326371D01*
X11021205Y28324532D01*
X11025453Y28317923D01*
X11055005Y28288370D01*
X11055004Y28288370D01*
X11055005Y28288369D01*
X11429690Y27913685D01*
X11443630Y27906073D01*
X11445466Y27906205D01*
X11452078Y27910454D01*
X11829995Y28288370D01*
X11829997Y28288372D01*
X11856315Y28314691D01*
X11862692Y28326370D01*
X12546073Y28326370D01*
X12546205Y28324534D01*
X12550454Y28317922D01*
X12862622Y28005753D01*
X12875001Y27998994D01*
X12878817Y28001851D01*
X12929146Y28134343D01*
X12932628Y28147904D01*
X12954374Y28302631D01*
X12954980Y28310513D01*
X12955162Y28323553D01*
X12954777Y28331423D01*
X12937359Y28486710D01*
X12934257Y28500363D01*
X12883889Y28645000D01*
X12881976Y28648991D01*
X12874271Y28655841D01*
X12865220Y28651845D01*
X12553684Y28340308D01*
X12546073Y28326370D01*
X11862692Y28326370D01*
X11863926Y28328629D01*
X11863795Y28330467D01*
X11859545Y28337079D01*
X11481630Y28714995D01*
X11481628Y28714997D01*
X11455309Y28741315D01*
X11441371Y28748926D01*
X11439533Y28748795D01*
X11432921Y28744545D01*
X11055005Y28366630D01*
X11055003Y28366628D01*
X11028685Y28340309D01*
X11021074Y28326371D01*
X10337693Y28326371D01*
X10338926Y28328629D01*
X10338795Y28330467D01*
X10334545Y28337079D01*
X9956630Y28714995D01*
X9956628Y28714997D01*
X9930309Y28741315D01*
X9916371Y28748926D01*
X9914533Y28748795D01*
X9907921Y28744545D01*
X9530005Y28366630D01*
X9530003Y28366628D01*
X9503685Y28340309D01*
X9496074Y28326371D01*
X8812693Y28326371D01*
X8813927Y28328630D01*
X8813795Y28330466D01*
X8809546Y28337078D01*
X8496825Y28649799D01*
X8484445Y28656559D01*
X8480231Y28653404D01*
X8428227Y28510527D01*
X8424935Y28496919D01*
X8405740Y28344969D01*
X8405544Y28330963D01*
X-9491500Y28330963D01*
X-9491500Y29182080D01*
X8826075Y29182080D01*
X8840362Y29162995D01*
X8865173Y29096475D01*
X8850082Y29027101D01*
X8833075Y29003114D01*
X8827003Y28996379D01*
X8830827Y28987549D01*
X9142188Y28676188D01*
X9156132Y28668574D01*
X9157967Y28668705D01*
X9164577Y28672953D01*
X9542495Y29050870D01*
X9542497Y29050872D01*
X9568815Y29077191D01*
X9575193Y29088871D01*
X10258574Y29088871D01*
X10258705Y29087032D01*
X10262953Y29080423D01*
X10292505Y29050870D01*
X10292504Y29050870D01*
X10292505Y29050869D01*
X10667190Y28676185D01*
X10681130Y28668573D01*
X10682966Y28668705D01*
X10689578Y28672954D01*
X11067495Y29050870D01*
X11067497Y29050872D01*
X11093815Y29077191D01*
X11100193Y29088871D01*
X11783574Y29088871D01*
X11783705Y29087032D01*
X11787953Y29080423D01*
X11817505Y29050870D01*
X11817504Y29050870D01*
X11817505Y29050869D01*
X12192190Y28676185D01*
X12206130Y28668573D01*
X12207966Y28668705D01*
X12214578Y28672954D01*
X12526900Y28985275D01*
X12533659Y28997653D01*
X12518745Y29017575D01*
X12493934Y29084095D01*
X12509025Y29153470D01*
X12527218Y29178754D01*
X12532387Y29184329D01*
X12528881Y29192743D01*
X12217812Y29503812D01*
X12203868Y29511426D01*
X12202033Y29511295D01*
X12195423Y29507047D01*
X11817505Y29129130D01*
X11817503Y29129128D01*
X11791185Y29102809D01*
X11783574Y29088871D01*
X11100193Y29088871D01*
X11101426Y29091129D01*
X11101295Y29092967D01*
X11097045Y29099579D01*
X10719130Y29477495D01*
X10719128Y29477497D01*
X10692809Y29503815D01*
X10678871Y29511426D01*
X10677033Y29511295D01*
X10670421Y29507045D01*
X10292505Y29129130D01*
X10292503Y29129128D01*
X10266185Y29102809D01*
X10258574Y29088871D01*
X9575193Y29088871D01*
X9576426Y29091129D01*
X9576295Y29092967D01*
X9572045Y29099579D01*
X9194130Y29477495D01*
X9194128Y29477497D01*
X9167809Y29503815D01*
X9153871Y29511426D01*
X9152033Y29511295D01*
X9145421Y29507045D01*
X8832834Y29194459D01*
X8826075Y29182080D01*
X-9491500Y29182080D01*
X-9491500Y29855963D01*
X8405544Y29855963D01*
X8420490Y29703530D01*
X8423401Y29689836D01*
X8471746Y29544507D01*
X8476713Y29533757D01*
X8486488Y29524820D01*
X8495107Y29528482D01*
X8806316Y29839692D01*
X8812693Y29851371D01*
X9496074Y29851371D01*
X9496205Y29849532D01*
X9500453Y29842923D01*
X9530005Y29813370D01*
X9530004Y29813370D01*
X9530005Y29813369D01*
X9904690Y29438685D01*
X9918630Y29431073D01*
X9920466Y29431205D01*
X9927078Y29435454D01*
X10304995Y29813370D01*
X10304997Y29813372D01*
X10331315Y29839691D01*
X10337693Y29851371D01*
X11021074Y29851371D01*
X11021205Y29849532D01*
X11025453Y29842923D01*
X11055005Y29813370D01*
X11055004Y29813370D01*
X11055005Y29813369D01*
X11429690Y29438685D01*
X11443630Y29431073D01*
X11445466Y29431205D01*
X11452078Y29435454D01*
X11829995Y29813370D01*
X11829997Y29813372D01*
X11856315Y29839691D01*
X11862692Y29851370D01*
X12546073Y29851370D01*
X12546205Y29849534D01*
X12550454Y29842922D01*
X12862622Y29530753D01*
X12875001Y29523994D01*
X12878817Y29526851D01*
X12929146Y29659343D01*
X12932628Y29672904D01*
X12954374Y29827631D01*
X12954980Y29835513D01*
X12955162Y29848553D01*
X12954777Y29856423D01*
X12937359Y30011710D01*
X12934257Y30025363D01*
X12883889Y30170000D01*
X12881976Y30173991D01*
X12874271Y30180841D01*
X12865220Y30176845D01*
X12553684Y29865308D01*
X12546073Y29851370D01*
X11862692Y29851370D01*
X11863926Y29853629D01*
X11863795Y29855467D01*
X11859545Y29862079D01*
X11481630Y30239995D01*
X11481628Y30239997D01*
X11455309Y30266315D01*
X11441371Y30273926D01*
X11439533Y30273795D01*
X11432921Y30269545D01*
X11055005Y29891630D01*
X11055003Y29891628D01*
X11028685Y29865309D01*
X11021074Y29851371D01*
X10337693Y29851371D01*
X10338926Y29853629D01*
X10338795Y29855467D01*
X10334545Y29862079D01*
X9956630Y30239995D01*
X9956628Y30239997D01*
X9930309Y30266315D01*
X9916371Y30273926D01*
X9914533Y30273795D01*
X9907921Y30269545D01*
X9530005Y29891630D01*
X9530003Y29891628D01*
X9503685Y29865309D01*
X9496074Y29851371D01*
X8812693Y29851371D01*
X8813927Y29853630D01*
X8813795Y29855466D01*
X8809546Y29862078D01*
X8496825Y30174799D01*
X8484445Y30181559D01*
X8480231Y30178404D01*
X8428227Y30035527D01*
X8424935Y30021919D01*
X8405740Y29869969D01*
X8405544Y29855963D01*
X-9491500Y29855963D01*
X-9491500Y30521379D01*
X8827003Y30521379D01*
X8830827Y30512549D01*
X9142188Y30201188D01*
X9156132Y30193574D01*
X9157967Y30193705D01*
X9164577Y30197953D01*
X9542495Y30575870D01*
X9542497Y30575872D01*
X9568815Y30602191D01*
X9575192Y30613870D01*
X10258573Y30613870D01*
X10258705Y30612034D01*
X10262954Y30605422D01*
X10292505Y30575870D01*
X10292504Y30575870D01*
X10292505Y30575869D01*
X10667190Y30201185D01*
X10681130Y30193573D01*
X10682966Y30193705D01*
X10689578Y30197954D01*
X11067495Y30575870D01*
X11067497Y30575872D01*
X11093815Y30602191D01*
X11100192Y30613870D01*
X11783573Y30613870D01*
X11783705Y30612034D01*
X11787954Y30605422D01*
X11817505Y30575870D01*
X11817504Y30575870D01*
X11817505Y30575869D01*
X12192190Y30201185D01*
X12206130Y30193573D01*
X12207966Y30193705D01*
X12214578Y30197954D01*
X12526900Y30510275D01*
X12533659Y30522654D01*
X12529689Y30527957D01*
X12527232Y30529156D01*
X12382948Y30580533D01*
X12369323Y30583728D01*
X12293041Y30592825D01*
X12227768Y30620753D01*
X12187956Y30679536D01*
X12182746Y30703894D01*
X12174859Y30774210D01*
X12171757Y30787863D01*
X12121389Y30932500D01*
X12119476Y30936491D01*
X12111771Y30943341D01*
X12102720Y30939345D01*
X11791184Y30627808D01*
X11783573Y30613870D01*
X11100192Y30613870D01*
X11101426Y30616129D01*
X11101295Y30617966D01*
X11097044Y30624580D01*
X10784325Y30937299D01*
X10771945Y30944059D01*
X10753329Y30930123D01*
X10686809Y30905312D01*
X10617435Y30920403D01*
X10594110Y30936817D01*
X10586771Y30943341D01*
X10577720Y30939345D01*
X10266184Y30627808D01*
X10258573Y30613870D01*
X9575192Y30613870D01*
X9576426Y30616129D01*
X9576295Y30617966D01*
X9572044Y30624580D01*
X9259325Y30937299D01*
X9246945Y30944059D01*
X9242731Y30940904D01*
X9190727Y30798027D01*
X9187435Y30784418D01*
X9177052Y30702230D01*
X9148670Y30637153D01*
X9089610Y30597752D01*
X9065217Y30592712D01*
X9000902Y30585952D01*
X8987238Y30582947D01*
X8842243Y30533588D01*
X8834889Y30530127D01*
X8827003Y30521379D01*
X-9491500Y30521379D01*
X-9491500Y31283879D01*
X9589503Y31283879D01*
X9593327Y31275049D01*
X9904688Y30963688D01*
X9918632Y30956074D01*
X9920467Y30956205D01*
X9927077Y30960453D01*
X10239400Y31272775D01*
X10245463Y31283879D01*
X11114503Y31283879D01*
X11118327Y31275049D01*
X11429688Y30963688D01*
X11443632Y30956074D01*
X11445467Y30956205D01*
X11452077Y30960453D01*
X11764400Y31272775D01*
X11771159Y31285154D01*
X11767189Y31290457D01*
X11764732Y31291656D01*
X11620448Y31343033D01*
X11606822Y31346229D01*
X11454729Y31364365D01*
X11440733Y31364463D01*
X11288402Y31348452D01*
X11274738Y31345447D01*
X11129743Y31296088D01*
X11122389Y31292627D01*
X11114503Y31283879D01*
X10245463Y31283879D01*
X10246159Y31285154D01*
X10242189Y31290457D01*
X10239732Y31291656D01*
X10095448Y31343033D01*
X10081822Y31346229D01*
X9929729Y31364365D01*
X9915733Y31364463D01*
X9763402Y31348452D01*
X9749738Y31345447D01*
X9604743Y31296088D01*
X9597389Y31292627D01*
X9589503Y31283879D01*
X-9491500Y31283879D01*
X-9491500Y75713477D01*
X1887898Y75713477D01*
X1899987Y75461825D01*
X1901124Y75452565D01*
X1950274Y75205465D01*
X1952768Y75196472D01*
X2037900Y74959361D01*
X2041700Y74950826D01*
X2160946Y74728899D01*
X2165957Y74721032D01*
X2229446Y74636010D01*
X2240704Y74627561D01*
X2253123Y74634333D01*
X3277978Y75659188D01*
X3284356Y75670868D01*
X4014408Y75670868D01*
X4014539Y75669035D01*
X4018790Y75662420D01*
X5049913Y74631297D01*
X5062293Y74624537D01*
X5070634Y74630781D01*
X5196765Y74826873D01*
X5201212Y74835064D01*
X5304691Y75064778D01*
X5307882Y75073545D01*
X5376269Y75316024D01*
X5378129Y75325166D01*
X5410116Y75576604D01*
X5410597Y75582892D01*
X5412847Y75668840D01*
X5412696Y75675149D01*
X5393912Y75927926D01*
X5392536Y75937132D01*
X5336929Y76182874D01*
X5334205Y76191785D01*
X5242888Y76426608D01*
X5238877Y76435017D01*
X5113854Y76653760D01*
X5108643Y76661486D01*
X5071391Y76708739D01*
X5059466Y76717210D01*
X5047934Y76710724D01*
X4022022Y75684812D01*
X4014408Y75670868D01*
X3284356Y75670868D01*
X3285592Y75673132D01*
X3285461Y75674965D01*
X3281210Y75681580D01*
X2251321Y76711469D01*
X2238013Y76718736D01*
X2227974Y76711614D01*
X2217761Y76699334D01*
X2212346Y76691742D01*
X2081646Y76476354D01*
X2077408Y76468037D01*
X1979981Y76235701D01*
X1977020Y76226851D01*
X1915006Y75982669D01*
X1913384Y75973472D01*
X1888143Y75722802D01*
X1887898Y75713477D01*
X-9491500Y75713477D01*
X-9491500Y77083197D01*
X2603216Y77083197D01*
X2607789Y77073421D01*
X3637188Y76044022D01*
X3651132Y76036408D01*
X3652965Y76036539D01*
X3659580Y76040790D01*
X4688419Y77069629D01*
X4694803Y77081319D01*
X4685391Y77093430D01*
X4548593Y77188330D01*
X4540565Y77193058D01*
X4314593Y77304495D01*
X4305960Y77307983D01*
X4065998Y77384795D01*
X4056938Y77386971D01*
X3808260Y77427471D01*
X3798973Y77428283D01*
X3547053Y77431581D01*
X3537742Y77431011D01*
X3288097Y77397036D01*
X3278978Y77395098D01*
X3037098Y77324596D01*
X3028367Y77321333D01*
X2799558Y77215849D01*
X2791406Y77211330D01*
X2612353Y77093938D01*
X2603216Y77083197D01*
X-9491500Y77083197D01*
X-9491500Y78240594D01*
X6643423Y78240594D01*
X6648704Y78233539D01*
X6825080Y78130473D01*
X6834363Y78126026D01*
X7041003Y78047117D01*
X7050901Y78044241D01*
X7267653Y78000143D01*
X7277883Y77998924D01*
X7498914Y77990818D01*
X7509223Y77991286D01*
X7728623Y78019392D01*
X7738688Y78021532D01*
X7950557Y78085095D01*
X7960152Y78088856D01*
X8158778Y78186162D01*
X8167636Y78191441D01*
X8225097Y78232428D01*
X8233497Y78243126D01*
X8226510Y78256279D01*
X7452811Y79029979D01*
X7438868Y79037592D01*
X7437034Y79037461D01*
X7430420Y79033210D01*
X6650180Y78252969D01*
X6643423Y78240594D01*
X-9491500Y78240594D01*
X-9491500Y79431362D01*
X6027893Y79431362D01*
X6040627Y79210532D01*
X6042061Y79200330D01*
X6090685Y78984561D01*
X6093773Y78974708D01*
X6176986Y78769780D01*
X6181634Y78760579D01*
X6270097Y78616219D01*
X6280553Y78606758D01*
X6289331Y78610542D01*
X7067979Y79389189D01*
X7075592Y79403132D01*
X7075461Y79404966D01*
X7071210Y79411580D01*
X6293862Y80188927D01*
X6282330Y80195224D01*
X6270048Y80185601D01*
X6214467Y80104123D01*
X6209379Y80095167D01*
X6116252Y79894541D01*
X6112689Y79884854D01*
X6053581Y79671720D01*
X6051650Y79661600D01*
X6028145Y79441651D01*
X6027893Y79431362D01*
X-9491500Y79431362D01*
X-9491500Y79737183D01*
X-9471498Y79805304D01*
X-9454595Y79826278D01*
X-8719584Y80561289D01*
X6645508Y80561289D01*
X6652251Y80548960D01*
X7427189Y79774021D01*
X7441132Y79766408D01*
X7442966Y79766539D01*
X7449580Y79770790D01*
X8228994Y80550205D01*
X8236011Y80563056D01*
X8228237Y80573726D01*
X8225902Y80575570D01*
X8217320Y80581271D01*
X8023678Y80688167D01*
X8014272Y80692394D01*
X7805772Y80766228D01*
X7795809Y80768860D01*
X7578047Y80807650D01*
X7567796Y80808619D01*
X7346616Y80811321D01*
X7336332Y80810601D01*
X7117693Y80777145D01*
X7107666Y80774756D01*
X6897426Y80706039D01*
X6887916Y80702042D01*
X6691725Y80599911D01*
X6683007Y80594422D01*
X6653961Y80572614D01*
X6645508Y80561289D01*
X-8719584Y80561289D01*
X-4518757Y84762115D01*
X4672000Y84762115D01*
X4676475Y84746876D01*
X4677865Y84745671D01*
X4685548Y84744000D01*
X5407885Y84744000D01*
X5423124Y84748475D01*
X5424329Y84749865D01*
X5426000Y84757548D01*
X5426000Y85997924D01*
X5422027Y86011455D01*
X5414232Y86012575D01*
X5306479Y85980862D01*
X5295111Y85976269D01*
X5130846Y85890393D01*
X5120585Y85883679D01*
X4976127Y85767532D01*
X4967368Y85758954D01*
X4848222Y85616961D01*
X4841292Y85606841D01*
X4751998Y85444415D01*
X4747166Y85433142D01*
X4691120Y85256462D01*
X4688570Y85244468D01*
X4672393Y85100239D01*
X4672000Y85093215D01*
X4672000Y84762115D01*
X-4518757Y84762115D01*
X-1057529Y88223343D01*
X4672000Y88223343D01*
X4672301Y88217195D01*
X4685812Y88079397D01*
X4688195Y88067362D01*
X4741767Y87889924D01*
X4746441Y87878584D01*
X4833460Y87714923D01*
X4840249Y87704706D01*
X4957397Y87561067D01*
X4966041Y87552363D01*
X5108856Y87434216D01*
X5119027Y87427356D01*
X5282076Y87339196D01*
X5293381Y87334444D01*
X5408692Y87298750D01*
X5422795Y87298544D01*
X5426000Y87305299D01*
X5426000Y87312076D01*
X5934000Y87312076D01*
X5937973Y87298545D01*
X5945768Y87297425D01*
X6053521Y87329138D01*
X6064889Y87333731D01*
X6229154Y87419607D01*
X6239415Y87426321D01*
X6383873Y87542468D01*
X6392632Y87551046D01*
X6511778Y87693039D01*
X6518708Y87703159D01*
X6608002Y87865585D01*
X6612834Y87876858D01*
X6668880Y88053538D01*
X6671430Y88065532D01*
X6687607Y88209761D01*
X6688000Y88216785D01*
X6688000Y88223343D01*
X13312000Y88223343D01*
X13312301Y88217195D01*
X13325812Y88079397D01*
X13328195Y88067362D01*
X13381767Y87889924D01*
X13386441Y87878584D01*
X13473460Y87714923D01*
X13480249Y87704706D01*
X13597397Y87561067D01*
X13606041Y87552363D01*
X13748856Y87434216D01*
X13759027Y87427356D01*
X13922076Y87339196D01*
X13933381Y87334444D01*
X14048692Y87298750D01*
X14062795Y87298544D01*
X14066000Y87305299D01*
X14066000Y87312076D01*
X14574000Y87312076D01*
X14577973Y87298545D01*
X14585768Y87297425D01*
X14693521Y87329138D01*
X14704889Y87333731D01*
X14869154Y87419607D01*
X14879415Y87426321D01*
X15023873Y87542468D01*
X15032632Y87551046D01*
X15151778Y87693039D01*
X15158708Y87703159D01*
X15248002Y87865585D01*
X15252834Y87876858D01*
X15308880Y88053538D01*
X15311430Y88065532D01*
X15327607Y88209761D01*
X15328000Y88216785D01*
X15328000Y88397885D01*
X15323525Y88413124D01*
X15322135Y88414329D01*
X15314452Y88416000D01*
X14592115Y88416000D01*
X14576876Y88411525D01*
X14575671Y88410135D01*
X14574000Y88402452D01*
X14574000Y87312076D01*
X14066000Y87312076D01*
X14066000Y88397885D01*
X14061525Y88413124D01*
X14060135Y88414329D01*
X14052452Y88416000D01*
X13330115Y88416000D01*
X13314876Y88411525D01*
X13313671Y88410135D01*
X13312000Y88402452D01*
X13312000Y88223343D01*
X6688000Y88223343D01*
X6688000Y88397885D01*
X6683525Y88413124D01*
X6682135Y88414329D01*
X6674452Y88416000D01*
X5952115Y88416000D01*
X5936876Y88411525D01*
X5935671Y88410135D01*
X5934000Y88402452D01*
X5934000Y87312076D01*
X5426000Y87312076D01*
X5426000Y88397885D01*
X5421525Y88413124D01*
X5420135Y88414329D01*
X5412452Y88416000D01*
X4690115Y88416000D01*
X4674876Y88411525D01*
X4673671Y88410135D01*
X4672000Y88402452D01*
X4672000Y88223343D01*
X-1057529Y88223343D01*
X173723Y89454595D01*
X236035Y89488621D01*
X262818Y89491500D01*
X4584005Y89491500D01*
X4652126Y89471498D01*
G37*
%TD.AperFunction*%
%TA.AperFunction,Conductor*%
G36*
X23724815Y79138482D02*
G01*
X23751752Y79116198D01*
X23760532Y79108208D01*
X24683003Y78185738D01*
X25604595Y77264146D01*
X25638620Y77201834D01*
X25641500Y77175051D01*
X25641500Y73824949D01*
X25621498Y73756828D01*
X25604595Y73735854D01*
X25114294Y73245553D01*
X25051982Y73211527D01*
X24987941Y73214283D01*
X24893666Y73243466D01*
X24887541Y73244110D01*
X24887540Y73244110D01*
X24712852Y73262471D01*
X24712851Y73262471D01*
X24706724Y73263115D01*
X24629673Y73256103D01*
X24525665Y73246637D01*
X24525662Y73246636D01*
X24519526Y73246078D01*
X24513620Y73244340D01*
X24513616Y73244339D01*
X24411495Y73214283D01*
X24339202Y73193006D01*
X24172621Y73105920D01*
X24026128Y72988136D01*
X23905302Y72844141D01*
X23902338Y72838749D01*
X23902335Y72838745D01*
X23863622Y72768326D01*
X23814746Y72679420D01*
X23812885Y72673553D01*
X23812884Y72673551D01*
X23800664Y72635027D01*
X23757909Y72500248D01*
X23736956Y72313448D01*
X23737472Y72307304D01*
X23746574Y72198914D01*
X23752685Y72126135D01*
X23754384Y72120211D01*
X23796053Y71974894D01*
X23804497Y71945445D01*
X23807312Y71939968D01*
X23807313Y71939965D01*
X23877420Y71803552D01*
X23890418Y71778260D01*
X23894241Y71773436D01*
X23894244Y71773432D01*
X23951005Y71701819D01*
X24007177Y71630948D01*
X24011871Y71626953D01*
X24143185Y71515196D01*
X24150324Y71509120D01*
X24155702Y71506114D01*
X24155704Y71506113D01*
X24221382Y71469407D01*
X24314409Y71417416D01*
X24493180Y71359330D01*
X24679830Y71337073D01*
X24685965Y71337545D01*
X24685967Y71337545D01*
X24861105Y71351021D01*
X24861109Y71351022D01*
X24867247Y71351494D01*
X24955718Y71376196D01*
X25042350Y71400384D01*
X25042353Y71400385D01*
X25048294Y71402044D01*
X25053798Y71404824D01*
X25053800Y71404825D01*
X25210574Y71484017D01*
X25210576Y71484018D01*
X25216075Y71486796D01*
X25364199Y71602523D01*
X25487023Y71744816D01*
X25493009Y71755353D01*
X25513470Y71782210D01*
X25521971Y71790711D01*
X25537005Y71803552D01*
X25547943Y71811499D01*
X25554357Y71816159D01*
X25583798Y71851747D01*
X25591787Y71860527D01*
X26126405Y72395145D01*
X26188717Y72429170D01*
X26259532Y72424106D01*
X26316368Y72381559D01*
X26341179Y72315039D01*
X26341500Y72306050D01*
X26341500Y72124950D01*
X26321498Y72056829D01*
X26304595Y72035855D01*
X22892395Y68623655D01*
X22883615Y68615665D01*
X22883613Y68615663D01*
X22876920Y68611416D01*
X22871494Y68605638D01*
X22871493Y68605637D01*
X22828396Y68559743D01*
X22825641Y68556901D01*
X22805073Y68536333D01*
X22802356Y68532830D01*
X22794648Y68523805D01*
X22763028Y68490133D01*
X22759207Y68483182D01*
X22759206Y68483181D01*
X22752697Y68471342D01*
X22741843Y68454818D01*
X22734018Y68444729D01*
X22728696Y68437868D01*
X22725549Y68430596D01*
X22725548Y68430594D01*
X22710346Y68395465D01*
X22705124Y68384805D01*
X22690168Y68357600D01*
X22682876Y68344337D01*
X22677541Y68323559D01*
X22671142Y68304869D01*
X22662620Y68285176D01*
X22661380Y68277345D01*
X22655394Y68239552D01*
X22652987Y68227929D01*
X22641500Y68183188D01*
X22641500Y68161741D01*
X22639949Y68142031D01*
X22636594Y68120848D01*
X22637340Y68112957D01*
X22640941Y68074862D01*
X22641500Y68063004D01*
X22641500Y57082056D01*
X22640941Y57070200D01*
X22639212Y57062463D01*
X22639461Y57054541D01*
X22641438Y56991631D01*
X22641500Y56987673D01*
X22641500Y56958568D01*
X22642056Y56954168D01*
X22642988Y56942336D01*
X22644438Y56896169D01*
X22646650Y56888556D01*
X22646650Y56888555D01*
X22650419Y56875584D01*
X22654429Y56856221D01*
X22657118Y56834936D01*
X22660034Y56827571D01*
X22660035Y56827567D01*
X22674126Y56791979D01*
X22677965Y56780769D01*
X22690855Y56736400D01*
X22701775Y56717935D01*
X22710466Y56700195D01*
X22718365Y56680244D01*
X22743828Y56645197D01*
X22745516Y56642874D01*
X22752033Y56632952D01*
X22771507Y56600023D01*
X22771510Y56600019D01*
X22775547Y56593193D01*
X22790711Y56578029D01*
X22803551Y56562996D01*
X22816159Y56545643D01*
X22833920Y56530950D01*
X22851752Y56516198D01*
X22860532Y56508208D01*
X23079645Y56289095D01*
X23113671Y56226783D01*
X23108606Y56155968D01*
X23079645Y56110905D01*
X18469778Y51501038D01*
X18445194Y51482580D01*
X18442807Y51481635D01*
X18436393Y51476975D01*
X18405437Y51454484D01*
X18395515Y51447967D01*
X18362586Y51428493D01*
X18362582Y51428490D01*
X18355756Y51424453D01*
X18340592Y51409289D01*
X18325559Y51396449D01*
X18308206Y51383841D01*
X18278761Y51348248D01*
X18270771Y51339468D01*
X10228575Y43297272D01*
X10166263Y43263246D01*
X10126312Y43261057D01*
X10112858Y43262471D01*
X10112850Y43262471D01*
X10106724Y43263115D01*
X10029673Y43256103D01*
X9925665Y43246637D01*
X9925662Y43246636D01*
X9919526Y43246078D01*
X9913620Y43244340D01*
X9913616Y43244339D01*
X9780278Y43205095D01*
X9739202Y43193006D01*
X9572621Y43105920D01*
X9426128Y42988136D01*
X9422170Y42983418D01*
X9422167Y42983416D01*
X9387441Y42942031D01*
X9305302Y42844141D01*
X9302338Y42838749D01*
X9302335Y42838745D01*
X9228611Y42704640D01*
X9214746Y42679420D01*
X9212885Y42673553D01*
X9212884Y42673551D01*
X9198193Y42627240D01*
X9157909Y42500248D01*
X9136956Y42313448D01*
X9152685Y42126135D01*
X9204497Y41945445D01*
X9207312Y41939968D01*
X9207313Y41939965D01*
X9284080Y41790592D01*
X9290418Y41778260D01*
X9294241Y41773436D01*
X9294244Y41773432D01*
X9385259Y41658601D01*
X9407177Y41630948D01*
X9550324Y41509120D01*
X9555702Y41506114D01*
X9555704Y41506113D01*
X9632367Y41463268D01*
X9714409Y41417416D01*
X9893180Y41359330D01*
X10079830Y41337073D01*
X10085965Y41337545D01*
X10085967Y41337545D01*
X10261105Y41351021D01*
X10261109Y41351022D01*
X10267247Y41351494D01*
X10382727Y41383737D01*
X10442350Y41400384D01*
X10442353Y41400385D01*
X10448294Y41402044D01*
X10453798Y41404824D01*
X10453800Y41404825D01*
X10610574Y41484017D01*
X10610576Y41484018D01*
X10616075Y41486796D01*
X10764199Y41602523D01*
X10768225Y41607187D01*
X10882994Y41740148D01*
X10882995Y41740150D01*
X10887023Y41744816D01*
X10922228Y41806788D01*
X10973267Y41856138D01*
X11042885Y41870061D01*
X11113447Y41840505D01*
X11150324Y41809120D01*
X11155702Y41806114D01*
X11155704Y41806113D01*
X11205541Y41778260D01*
X11314409Y41717416D01*
X11493180Y41659330D01*
X11679830Y41637073D01*
X11685965Y41637545D01*
X11685967Y41637545D01*
X11861105Y41651021D01*
X11861109Y41651022D01*
X11867247Y41651494D01*
X11972086Y41680766D01*
X12042350Y41700384D01*
X12042353Y41700385D01*
X12048294Y41702044D01*
X12053798Y41704824D01*
X12053800Y41704825D01*
X12210574Y41784017D01*
X12210576Y41784018D01*
X12216075Y41786796D01*
X12364199Y41902523D01*
X12401248Y41945445D01*
X12482994Y42040148D01*
X12482995Y42040150D01*
X12487023Y42044816D01*
X12579870Y42208256D01*
X12639203Y42386618D01*
X12662762Y42573108D01*
X12662875Y42581178D01*
X12683830Y42649012D01*
X12699768Y42668508D01*
X17651405Y47620145D01*
X17713717Y47654171D01*
X17784532Y47649106D01*
X17841368Y47606559D01*
X17866179Y47540039D01*
X17866500Y47531050D01*
X17866500Y42679795D01*
X17846498Y42611674D01*
X17829597Y42590925D01*
X17826128Y42588136D01*
X17705302Y42444141D01*
X17702338Y42438749D01*
X17702335Y42438745D01*
X17670461Y42380766D01*
X17614746Y42279420D01*
X17557909Y42100248D01*
X17536956Y41913448D01*
X17537472Y41907304D01*
X17547825Y41784017D01*
X17552685Y41726135D01*
X17604497Y41545445D01*
X17607312Y41539968D01*
X17607313Y41539965D01*
X17678195Y41402044D01*
X17690418Y41378260D01*
X17694241Y41373436D01*
X17694244Y41373432D01*
X17797904Y41242648D01*
X17807177Y41230948D01*
X17950324Y41109120D01*
X17955702Y41106114D01*
X17955704Y41106113D01*
X18032366Y41063268D01*
X18114409Y41017416D01*
X18293180Y40959330D01*
X18479830Y40937073D01*
X18485965Y40937545D01*
X18485967Y40937545D01*
X18661105Y40951021D01*
X18661109Y40951022D01*
X18667247Y40951494D01*
X18752378Y40975263D01*
X18842350Y41000384D01*
X18842353Y41000385D01*
X18848294Y41002044D01*
X18853798Y41004824D01*
X18853800Y41004825D01*
X19010574Y41084017D01*
X19010576Y41084018D01*
X19016075Y41086796D01*
X19164199Y41202523D01*
X19168225Y41207187D01*
X19282994Y41340148D01*
X19282995Y41340150D01*
X19287023Y41344816D01*
X19379870Y41508256D01*
X19439203Y41686618D01*
X19462762Y41873108D01*
X19463138Y41900000D01*
X19444795Y42087074D01*
X19390465Y42267023D01*
X19302218Y42432992D01*
X19183415Y42578660D01*
X19178669Y42582586D01*
X19174323Y42586963D01*
X19175292Y42587925D01*
X19139448Y42640987D01*
X19133500Y42679244D01*
X19133500Y47485406D01*
X19153502Y47553527D01*
X19170405Y47574501D01*
X20296524Y48700620D01*
X20358836Y48734646D01*
X20379860Y48736684D01*
X20379830Y48737073D01*
X20561105Y48751021D01*
X20561109Y48751022D01*
X20567247Y48751494D01*
X20652378Y48775263D01*
X20742350Y48800384D01*
X20742353Y48800385D01*
X20748294Y48802044D01*
X20753798Y48804824D01*
X20753800Y48804825D01*
X20910574Y48884017D01*
X20910576Y48884018D01*
X20916075Y48886796D01*
X21064199Y49002523D01*
X21082692Y49023947D01*
X21182994Y49140148D01*
X21182995Y49140150D01*
X21187023Y49144816D01*
X21279870Y49308256D01*
X21316290Y49417738D01*
X21356771Y49476062D01*
X21422360Y49503242D01*
X21474784Y49497799D01*
X21593180Y49459330D01*
X21779830Y49437073D01*
X21785964Y49437545D01*
X21785965Y49437545D01*
X21789319Y49437803D01*
X21803011Y49438857D01*
X21872464Y49424141D01*
X21901773Y49402323D01*
X22129595Y49174501D01*
X22163621Y49112189D01*
X22166500Y49085406D01*
X22166500Y39483586D01*
X22146498Y39415465D01*
X22098875Y39371924D01*
X21989494Y39314741D01*
X21972621Y39305920D01*
X21826128Y39188136D01*
X21822170Y39183418D01*
X21822167Y39183416D01*
X21738527Y39083737D01*
X21705302Y39044141D01*
X21702338Y39038749D01*
X21702335Y39038745D01*
X21644256Y38933099D01*
X21614746Y38879420D01*
X21612885Y38873553D01*
X21612884Y38873551D01*
X21586568Y38790592D01*
X21557909Y38700248D01*
X21536956Y38513448D01*
X21552685Y38326135D01*
X21604497Y38145445D01*
X21690418Y37978260D01*
X21694241Y37973436D01*
X21694244Y37973432D01*
X21797904Y37842648D01*
X21807177Y37830948D01*
X21950324Y37709120D01*
X22114409Y37617416D01*
X22293180Y37559330D01*
X22479830Y37537073D01*
X22485965Y37537545D01*
X22485967Y37537545D01*
X22581702Y37544912D01*
X22641266Y37549495D01*
X22710721Y37534778D01*
X22761193Y37484847D01*
X22772050Y37458600D01*
X22804497Y37345445D01*
X22890418Y37178260D01*
X22894241Y37173436D01*
X22894244Y37173432D01*
X22997904Y37042648D01*
X23007177Y37030948D01*
X23150324Y36909120D01*
X23314409Y36817416D01*
X23493180Y36759330D01*
X23679830Y36737073D01*
X23685965Y36737545D01*
X23685967Y36737545D01*
X23861105Y36751021D01*
X23861109Y36751022D01*
X23867247Y36751494D01*
X23989292Y36785570D01*
X24042350Y36800384D01*
X24042353Y36800385D01*
X24048294Y36802044D01*
X24158691Y36857809D01*
X24228512Y36870669D01*
X24294203Y36843740D01*
X24334906Y36785570D01*
X24341500Y36745343D01*
X24341500Y28946806D01*
X24321498Y28878685D01*
X24267842Y28832192D01*
X24251075Y28825932D01*
X24139202Y28793006D01*
X23972621Y28705920D01*
X23967821Y28702060D01*
X23967493Y28701846D01*
X23899540Y28681282D01*
X23831257Y28700721D01*
X23784322Y28753991D01*
X23772500Y28807278D01*
X23772500Y29381944D01*
X23773059Y29393800D01*
X23773059Y29393803D01*
X23774788Y29401537D01*
X23772562Y29472369D01*
X23772500Y29476327D01*
X23772500Y29505432D01*
X23771944Y29509832D01*
X23771012Y29521670D01*
X23770850Y29526851D01*
X23769562Y29567831D01*
X23763580Y29588421D01*
X23759570Y29607784D01*
X23757875Y29621204D01*
X23757875Y29621205D01*
X23756882Y29629064D01*
X23753966Y29636429D01*
X23753965Y29636433D01*
X23739876Y29672018D01*
X23736031Y29683247D01*
X23725356Y29719990D01*
X23723145Y29727601D01*
X23712230Y29746057D01*
X23703531Y29763813D01*
X23703182Y29764693D01*
X23695635Y29783756D01*
X23668480Y29821132D01*
X23661965Y29831051D01*
X23642492Y29863977D01*
X23642489Y29863981D01*
X23638452Y29870807D01*
X23623291Y29885968D01*
X23610449Y29901003D01*
X23597841Y29918357D01*
X23562248Y29947802D01*
X23553467Y29955792D01*
X23042333Y30466927D01*
X20335649Y33173611D01*
X20327663Y33182388D01*
X20323416Y33189080D01*
X20271742Y33237605D01*
X20268901Y33240359D01*
X20248333Y33260927D01*
X20244826Y33263647D01*
X20235804Y33271353D01*
X20207913Y33297544D01*
X20202133Y33302972D01*
X20195181Y33306794D01*
X20183342Y33313303D01*
X20166818Y33324157D01*
X20156132Y33332445D01*
X20149868Y33337304D01*
X20142596Y33340451D01*
X20142594Y33340452D01*
X20107465Y33355654D01*
X20096805Y33360876D01*
X20063284Y33379305D01*
X20063282Y33379306D01*
X20056337Y33383124D01*
X20035559Y33388459D01*
X20016869Y33394858D01*
X19997176Y33403380D01*
X19951552Y33410606D01*
X19939929Y33413013D01*
X19911928Y33420202D01*
X19895188Y33424500D01*
X19873741Y33424500D01*
X19854031Y33426051D01*
X19840677Y33428166D01*
X19832848Y33429406D01*
X19786859Y33425059D01*
X19775004Y33424500D01*
X369950Y33424500D01*
X301829Y33444502D01*
X255336Y33498158D01*
X245232Y33568432D01*
X274726Y33633012D01*
X280855Y33639595D01*
X5507605Y38866345D01*
X5516385Y38874335D01*
X5516387Y38874337D01*
X5523080Y38878584D01*
X5571605Y38930258D01*
X5574359Y38933099D01*
X5594927Y38953667D01*
X5597647Y38957174D01*
X5605353Y38966196D01*
X5631544Y38994087D01*
X5636972Y38999867D01*
X5640794Y39006819D01*
X5647303Y39018658D01*
X5658157Y39035182D01*
X5666445Y39045868D01*
X5671304Y39052132D01*
X5674452Y39059406D01*
X5689654Y39094535D01*
X5694876Y39105195D01*
X5713305Y39138716D01*
X5713306Y39138718D01*
X5717124Y39145663D01*
X5722459Y39166441D01*
X5728858Y39185131D01*
X5737380Y39204824D01*
X5744606Y39250448D01*
X5747013Y39262071D01*
X5756528Y39299132D01*
X5758500Y39306812D01*
X5758500Y39328259D01*
X5760051Y39347969D01*
X5762166Y39361323D01*
X5763406Y39369152D01*
X5759059Y39415141D01*
X5758500Y39426996D01*
X5758500Y54895062D01*
X5778502Y54963183D01*
X5789119Y54977393D01*
X5882994Y55086148D01*
X5882995Y55086150D01*
X5887023Y55090816D01*
X5979870Y55254256D01*
X6039203Y55432618D01*
X6062762Y55619108D01*
X6062857Y55625899D01*
X6063089Y55642478D01*
X6063089Y55642482D01*
X6063138Y55646000D01*
X6044795Y55833074D01*
X5990465Y56013023D01*
X5902218Y56178992D01*
X5783415Y56324660D01*
X5729603Y56369177D01*
X5643329Y56440550D01*
X5643324Y56440553D01*
X5638580Y56444478D01*
X5633161Y56447408D01*
X5633158Y56447410D01*
X5563671Y56484981D01*
X5473231Y56533881D01*
X5293666Y56589466D01*
X5287541Y56590110D01*
X5287540Y56590110D01*
X5231992Y56595948D01*
X5107986Y56608982D01*
X5042330Y56635995D01*
X5032063Y56645197D01*
X3357655Y58319605D01*
X3349665Y58328385D01*
X3349663Y58328387D01*
X3345416Y58335080D01*
X3293742Y58383605D01*
X3290901Y58386359D01*
X3270333Y58406927D01*
X3266826Y58409647D01*
X3257804Y58417353D01*
X3229913Y58443544D01*
X3224133Y58448972D01*
X3217181Y58452794D01*
X3205342Y58459303D01*
X3188818Y58470157D01*
X3178132Y58478445D01*
X3171868Y58483304D01*
X3164596Y58486451D01*
X3164594Y58486452D01*
X3129465Y58501654D01*
X3118805Y58506876D01*
X3085284Y58525305D01*
X3085282Y58525306D01*
X3078337Y58529124D01*
X3057559Y58534459D01*
X3038869Y58540858D01*
X3019176Y58549380D01*
X2973552Y58556606D01*
X2961929Y58559013D01*
X2933928Y58566202D01*
X2917188Y58570500D01*
X2895741Y58570500D01*
X2876031Y58572051D01*
X2862677Y58574166D01*
X2854848Y58575406D01*
X2808859Y58571059D01*
X2797004Y58570500D01*
X-4549500Y58570500D01*
X-4617621Y58590502D01*
X-4664114Y58644158D01*
X-4675500Y58696500D01*
X-4675500Y60382000D01*
X4846526Y60382000D01*
X4866391Y60129597D01*
X4867545Y60124790D01*
X4867546Y60124784D01*
X4887082Y60043412D01*
X4925495Y59883409D01*
X4927388Y59878838D01*
X4927389Y59878836D01*
X5010265Y59678757D01*
X5022384Y59649498D01*
X5154672Y59433624D01*
X5319102Y59241102D01*
X5511624Y59076672D01*
X5727498Y58944384D01*
X5732068Y58942491D01*
X5732072Y58942489D01*
X5956836Y58849389D01*
X5961409Y58847495D01*
X6046032Y58827179D01*
X6202784Y58789546D01*
X6202790Y58789545D01*
X6207597Y58788391D01*
X6460000Y58768526D01*
X6712403Y58788391D01*
X6717210Y58789545D01*
X6717216Y58789546D01*
X6873968Y58827179D01*
X6958591Y58847495D01*
X6963164Y58849389D01*
X7187928Y58942489D01*
X7187932Y58942491D01*
X7192502Y58944384D01*
X7408376Y59076672D01*
X7600898Y59241102D01*
X7765328Y59433624D01*
X7897616Y59649498D01*
X7909736Y59678757D01*
X7992611Y59878836D01*
X7992612Y59878838D01*
X7994505Y59883409D01*
X8032918Y60043412D01*
X8052454Y60124784D01*
X8052455Y60124790D01*
X8053609Y60129597D01*
X8073474Y60382000D01*
X11846526Y60382000D01*
X11866391Y60129597D01*
X11867545Y60124790D01*
X11867546Y60124784D01*
X11887082Y60043412D01*
X11925495Y59883409D01*
X11927388Y59878838D01*
X11927389Y59878836D01*
X12010265Y59678757D01*
X12022384Y59649498D01*
X12154672Y59433624D01*
X12319102Y59241102D01*
X12511624Y59076672D01*
X12727498Y58944384D01*
X12732068Y58942491D01*
X12732072Y58942489D01*
X12956836Y58849389D01*
X12961409Y58847495D01*
X13046032Y58827179D01*
X13202784Y58789546D01*
X13202790Y58789545D01*
X13207597Y58788391D01*
X13460000Y58768526D01*
X13712403Y58788391D01*
X13717210Y58789545D01*
X13717216Y58789546D01*
X13873968Y58827179D01*
X13958591Y58847495D01*
X13963164Y58849389D01*
X14187928Y58942489D01*
X14187932Y58942491D01*
X14192502Y58944384D01*
X14408376Y59076672D01*
X14600898Y59241102D01*
X14765328Y59433624D01*
X14897616Y59649498D01*
X14909736Y59678757D01*
X14992611Y59878836D01*
X14992612Y59878838D01*
X14994505Y59883409D01*
X15032918Y60043412D01*
X15052454Y60124784D01*
X15052455Y60124790D01*
X15053609Y60129597D01*
X15073474Y60382000D01*
X15053609Y60634403D01*
X14994505Y60880591D01*
X14897616Y61114502D01*
X14765328Y61330376D01*
X14600898Y61522898D01*
X14408376Y61687328D01*
X14192502Y61819616D01*
X14187932Y61821509D01*
X14187928Y61821511D01*
X13963164Y61914611D01*
X13963162Y61914612D01*
X13958591Y61916505D01*
X13873968Y61936821D01*
X13717216Y61974454D01*
X13717210Y61974455D01*
X13712403Y61975609D01*
X13460000Y61995474D01*
X13207597Y61975609D01*
X13202790Y61974455D01*
X13202784Y61974454D01*
X13046032Y61936821D01*
X12961409Y61916505D01*
X12956838Y61914612D01*
X12956836Y61914611D01*
X12732072Y61821511D01*
X12732068Y61821509D01*
X12727498Y61819616D01*
X12511624Y61687328D01*
X12319102Y61522898D01*
X12154672Y61330376D01*
X12022384Y61114502D01*
X11925495Y60880591D01*
X11866391Y60634403D01*
X11846526Y60382000D01*
X8073474Y60382000D01*
X8053609Y60634403D01*
X7994505Y60880591D01*
X7897616Y61114502D01*
X7765328Y61330376D01*
X7600898Y61522898D01*
X7408376Y61687328D01*
X7192502Y61819616D01*
X7187932Y61821509D01*
X7187928Y61821511D01*
X6963164Y61914611D01*
X6963162Y61914612D01*
X6958591Y61916505D01*
X6873968Y61936821D01*
X6717216Y61974454D01*
X6717210Y61974455D01*
X6712403Y61975609D01*
X6460000Y61995474D01*
X6207597Y61975609D01*
X6202790Y61974455D01*
X6202784Y61974454D01*
X6046032Y61936821D01*
X5961409Y61916505D01*
X5956838Y61914612D01*
X5956836Y61914611D01*
X5732072Y61821511D01*
X5732068Y61821509D01*
X5727498Y61819616D01*
X5511624Y61687328D01*
X5319102Y61522898D01*
X5154672Y61330376D01*
X5022384Y61114502D01*
X4925495Y60880591D01*
X4866391Y60634403D01*
X4846526Y60382000D01*
X-4675500Y60382000D01*
X-4675500Y63576610D01*
X5519440Y63576610D01*
X5525167Y63568960D01*
X5723506Y63447417D01*
X5732300Y63442936D01*
X5956991Y63349866D01*
X5966376Y63346817D01*
X6202863Y63290041D01*
X6212610Y63288498D01*
X6455070Y63269416D01*
X6464930Y63269416D01*
X6707390Y63288498D01*
X6717137Y63290041D01*
X6953624Y63346817D01*
X6963009Y63349866D01*
X7187700Y63442936D01*
X7196494Y63447417D01*
X7391167Y63566713D01*
X7400120Y63576610D01*
X12519440Y63576610D01*
X12525167Y63568960D01*
X12723506Y63447417D01*
X12732300Y63442936D01*
X12956991Y63349866D01*
X12966376Y63346817D01*
X13202863Y63290041D01*
X13212610Y63288498D01*
X13455070Y63269416D01*
X13464930Y63269416D01*
X13707390Y63288498D01*
X13717137Y63290041D01*
X13953624Y63346817D01*
X13963009Y63349866D01*
X14187700Y63442936D01*
X14196494Y63447417D01*
X14391167Y63566713D01*
X14400627Y63577170D01*
X14396844Y63585946D01*
X13472812Y64509978D01*
X13458868Y64517592D01*
X13457035Y64517461D01*
X13450420Y64513210D01*
X12526200Y63588990D01*
X12519440Y63576610D01*
X7400120Y63576610D01*
X7400627Y63577170D01*
X7396844Y63585946D01*
X6472812Y64509978D01*
X6458868Y64517592D01*
X6457035Y64517461D01*
X6450420Y64513210D01*
X5526200Y63588990D01*
X5519440Y63576610D01*
X-4675500Y63576610D01*
X-4675500Y64262867D01*
X2605612Y64262867D01*
X2614325Y64251347D01*
X2712018Y64179716D01*
X2719928Y64174773D01*
X2942890Y64057467D01*
X2951453Y64053744D01*
X3189304Y63970682D01*
X3198313Y63968268D01*
X3445842Y63921273D01*
X3455098Y63920219D01*
X3706857Y63910327D01*
X3716171Y63910653D01*
X3966615Y63938080D01*
X3975792Y63939781D01*
X4219431Y64003926D01*
X4228251Y64006963D01*
X4459736Y64106417D01*
X4468008Y64110724D01*
X4682249Y64243300D01*
X4689790Y64248779D01*
X4774232Y64320264D01*
X4839148Y64349013D01*
X4909301Y64338101D01*
X4962419Y64290994D01*
X4972053Y64272315D01*
X5020936Y64154300D01*
X5025417Y64145506D01*
X5144713Y63950833D01*
X5155170Y63941373D01*
X5163946Y63945156D01*
X6099658Y64880868D01*
X6824408Y64880868D01*
X6824539Y64879035D01*
X6828790Y64872420D01*
X7753010Y63948200D01*
X7765390Y63941440D01*
X7773040Y63947167D01*
X7894583Y64145506D01*
X7899064Y64154300D01*
X7992134Y64378991D01*
X7995183Y64388376D01*
X8051959Y64624863D01*
X8053502Y64634610D01*
X8072584Y64877070D01*
X11847416Y64877070D01*
X11866498Y64634610D01*
X11868041Y64624863D01*
X11924817Y64388376D01*
X11927866Y64378991D01*
X12020936Y64154300D01*
X12025417Y64145506D01*
X12144713Y63950833D01*
X12155170Y63941373D01*
X12163946Y63945156D01*
X13087978Y64869188D01*
X13095592Y64883132D01*
X13095461Y64884965D01*
X13091210Y64891580D01*
X12166990Y65815800D01*
X12154610Y65822560D01*
X12146960Y65816833D01*
X12025417Y65618494D01*
X12020936Y65609700D01*
X11927866Y65385009D01*
X11924817Y65375624D01*
X11868041Y65139137D01*
X11866498Y65129390D01*
X11847416Y64886930D01*
X11847416Y64877070D01*
X8072584Y64877070D01*
X8072584Y64886930D01*
X8053502Y65129390D01*
X8051959Y65139137D01*
X7995183Y65375624D01*
X7992134Y65385009D01*
X7899064Y65609700D01*
X7894583Y65618494D01*
X7775287Y65813167D01*
X7764830Y65822627D01*
X7756054Y65818844D01*
X6832022Y64894812D01*
X6824408Y64880868D01*
X6099658Y64880868D01*
X7393800Y66175010D01*
X7400254Y66186830D01*
X12519373Y66186830D01*
X12523156Y66178054D01*
X14753010Y63948200D01*
X14765390Y63941440D01*
X14773040Y63947167D01*
X14894583Y64145506D01*
X14899064Y64154301D01*
X14953942Y64286787D01*
X14998491Y64342068D01*
X15065854Y64364489D01*
X15134645Y64346931D01*
X15152183Y64334379D01*
X15158842Y64328692D01*
X15362018Y64179716D01*
X15369928Y64174773D01*
X15592890Y64057467D01*
X15601453Y64053744D01*
X15839304Y63970682D01*
X15848313Y63968268D01*
X16095842Y63921273D01*
X16105098Y63920219D01*
X16356857Y63910327D01*
X16366171Y63910653D01*
X16616615Y63938080D01*
X16625792Y63939781D01*
X16869431Y64003926D01*
X16878251Y64006963D01*
X17109736Y64106417D01*
X17118008Y64110724D01*
X17332249Y64243300D01*
X17339188Y64248342D01*
X17347518Y64260981D01*
X17341456Y64271334D01*
X15941922Y65670868D01*
X16664408Y65670868D01*
X16664539Y65669035D01*
X16668790Y65662420D01*
X17699913Y64631297D01*
X17712293Y64624537D01*
X17720634Y64630781D01*
X17846765Y64826873D01*
X17851212Y64835064D01*
X17954691Y65064778D01*
X17957882Y65073545D01*
X18026269Y65316024D01*
X18028129Y65325166D01*
X18060116Y65576604D01*
X18060597Y65582892D01*
X18062847Y65668840D01*
X18062696Y65675149D01*
X18043912Y65927926D01*
X18042536Y65937132D01*
X17986929Y66182874D01*
X17984205Y66191785D01*
X17892888Y66426608D01*
X17888877Y66435017D01*
X17763854Y66653760D01*
X17758643Y66661486D01*
X17721391Y66708739D01*
X17709466Y66717210D01*
X17697934Y66710724D01*
X16672022Y65684812D01*
X16664408Y65670868D01*
X15941922Y65670868D01*
X14901321Y66711469D01*
X14888013Y66718736D01*
X14877974Y66711614D01*
X14867761Y66699334D01*
X14862346Y66691742D01*
X14731646Y66476354D01*
X14727408Y66468037D01*
X14629982Y66235703D01*
X14627241Y66227511D01*
X14586655Y66169259D01*
X14521019Y66142195D01*
X14451171Y66154914D01*
X14425921Y66171685D01*
X14411841Y66183711D01*
X14403867Y66189504D01*
X14196494Y66316583D01*
X14187700Y66321064D01*
X13963009Y66414134D01*
X13953624Y66417183D01*
X13717137Y66473959D01*
X13707390Y66475502D01*
X13464930Y66494584D01*
X13455070Y66494584D01*
X13212610Y66475502D01*
X13202863Y66473959D01*
X12966376Y66417183D01*
X12956991Y66414134D01*
X12732300Y66321064D01*
X12723506Y66316583D01*
X12528833Y66197287D01*
X12519373Y66186830D01*
X7400254Y66186830D01*
X7400560Y66187390D01*
X7394833Y66195040D01*
X7196494Y66316583D01*
X7187700Y66321064D01*
X6963009Y66414134D01*
X6953624Y66417183D01*
X6717137Y66473959D01*
X6707390Y66475502D01*
X6464930Y66494584D01*
X6455070Y66494584D01*
X6212610Y66475502D01*
X6202863Y66473959D01*
X5966376Y66417183D01*
X5956991Y66414134D01*
X5732300Y66321064D01*
X5723506Y66316583D01*
X5516137Y66189507D01*
X5507221Y66183029D01*
X5440353Y66159171D01*
X5371202Y66175252D01*
X5321722Y66226167D01*
X5315728Y66239299D01*
X5242888Y66426608D01*
X5238877Y66435017D01*
X5113854Y66653760D01*
X5108643Y66661486D01*
X5071391Y66708739D01*
X5059466Y66717210D01*
X5047934Y66710724D01*
X2612270Y64275060D01*
X2605612Y64262867D01*
X-4675500Y64262867D01*
X-4675500Y64566050D01*
X-4655498Y64634171D01*
X-4638595Y64655145D01*
X-3580263Y65713477D01*
X1887898Y65713477D01*
X1899987Y65461825D01*
X1901124Y65452565D01*
X1950274Y65205465D01*
X1952768Y65196472D01*
X2037900Y64959361D01*
X2041700Y64950826D01*
X2160946Y64728899D01*
X2165957Y64721032D01*
X2229446Y64636010D01*
X2240704Y64627561D01*
X2253123Y64634333D01*
X3277978Y65659188D01*
X3285592Y65673132D01*
X3285461Y65674965D01*
X3281210Y65681580D01*
X2251321Y66711469D01*
X2238013Y66718736D01*
X2227974Y66711614D01*
X2217761Y66699334D01*
X2212346Y66691742D01*
X2081646Y66476354D01*
X2077408Y66468037D01*
X1979981Y66235701D01*
X1977020Y66226851D01*
X1915006Y65982669D01*
X1913384Y65973472D01*
X1888143Y65722802D01*
X1887898Y65713477D01*
X-3580263Y65713477D01*
X-2210543Y67083197D01*
X2603216Y67083197D01*
X2607789Y67073421D01*
X3637188Y66044022D01*
X3651132Y66036408D01*
X3652965Y66036539D01*
X3659580Y66040790D01*
X4688419Y67069629D01*
X4694803Y67081319D01*
X4693344Y67083197D01*
X15253216Y67083197D01*
X15257789Y67073421D01*
X16287188Y66044022D01*
X16301132Y66036408D01*
X16302965Y66036539D01*
X16309580Y66040790D01*
X17239384Y66970594D01*
X17913423Y66970594D01*
X17918704Y66963539D01*
X18095080Y66860473D01*
X18104363Y66856026D01*
X18311003Y66777117D01*
X18320901Y66774241D01*
X18537653Y66730143D01*
X18547883Y66728924D01*
X18768914Y66720818D01*
X18779223Y66721286D01*
X18998623Y66749392D01*
X19008688Y66751532D01*
X19220557Y66815095D01*
X19230152Y66818856D01*
X19428778Y66916162D01*
X19437636Y66921441D01*
X19495097Y66962428D01*
X19503497Y66973126D01*
X19496510Y66986279D01*
X18722811Y67759979D01*
X18708868Y67767592D01*
X18707034Y67767461D01*
X18700420Y67763210D01*
X17920180Y66982969D01*
X17913423Y66970594D01*
X17239384Y66970594D01*
X17338419Y67069629D01*
X17344803Y67081319D01*
X17335391Y67093430D01*
X17198593Y67188330D01*
X17190565Y67193058D01*
X16964593Y67304495D01*
X16955960Y67307983D01*
X16715998Y67384795D01*
X16706938Y67386971D01*
X16458260Y67427471D01*
X16448973Y67428283D01*
X16197053Y67431581D01*
X16187742Y67431011D01*
X15938097Y67397036D01*
X15928978Y67395098D01*
X15687098Y67324596D01*
X15678367Y67321333D01*
X15449558Y67215849D01*
X15441406Y67211330D01*
X15262353Y67093938D01*
X15253216Y67083197D01*
X4693344Y67083197D01*
X4685391Y67093430D01*
X4548593Y67188330D01*
X4540565Y67193058D01*
X4314593Y67304495D01*
X4305960Y67307983D01*
X4065998Y67384795D01*
X4056938Y67386971D01*
X3808260Y67427471D01*
X3798973Y67428283D01*
X3547053Y67431581D01*
X3537742Y67431011D01*
X3288097Y67397036D01*
X3278978Y67395098D01*
X3037098Y67324596D01*
X3028367Y67321333D01*
X2799558Y67215849D01*
X2791406Y67211330D01*
X2612353Y67093938D01*
X2603216Y67083197D01*
X-2210543Y67083197D01*
X-1132378Y68161362D01*
X17297893Y68161362D01*
X17310627Y67940532D01*
X17312061Y67930330D01*
X17360685Y67714561D01*
X17363773Y67704708D01*
X17446986Y67499780D01*
X17451634Y67490579D01*
X17540097Y67346219D01*
X17550553Y67336758D01*
X17559331Y67340542D01*
X18337979Y68119189D01*
X18344356Y68130868D01*
X19074408Y68130868D01*
X19074539Y68129034D01*
X19078790Y68122420D01*
X19856307Y67344904D01*
X19868313Y67338348D01*
X19880052Y67347316D01*
X19918010Y67400141D01*
X19923321Y67408980D01*
X20021318Y67607263D01*
X20025117Y67616858D01*
X20089415Y67828483D01*
X20091594Y67838564D01*
X20120702Y68059662D01*
X20121221Y68066337D01*
X20122744Y68128636D01*
X20122550Y68135354D01*
X20104279Y68357600D01*
X20102596Y68367762D01*
X20048710Y68582292D01*
X20045389Y68592047D01*
X19957193Y68794882D01*
X19952315Y68803980D01*
X19879224Y68916962D01*
X19868538Y68926165D01*
X19858973Y68921762D01*
X19082021Y68144811D01*
X19074408Y68130868D01*
X18344356Y68130868D01*
X18345592Y68133132D01*
X18345461Y68134966D01*
X18341210Y68141580D01*
X17563862Y68918927D01*
X17552330Y68925224D01*
X17540048Y68915601D01*
X17484467Y68834123D01*
X17479379Y68825167D01*
X17386252Y68624541D01*
X17382689Y68614854D01*
X17323581Y68401720D01*
X17321650Y68391600D01*
X17298145Y68171651D01*
X17297893Y68161362D01*
X-1132378Y68161362D01*
X-380084Y68913656D01*
X-317772Y68947682D01*
X-300656Y68950190D01*
X-153395Y68961521D01*
X-153391Y68961522D01*
X-147253Y68961994D01*
X-62122Y68985763D01*
X27850Y69010884D01*
X27853Y69010885D01*
X33794Y69012544D01*
X39298Y69015324D01*
X39300Y69015325D01*
X196074Y69094517D01*
X196076Y69094518D01*
X201575Y69097296D01*
X349699Y69213023D01*
X398574Y69269645D01*
X468494Y69350648D01*
X468495Y69350650D01*
X472523Y69355316D01*
X565370Y69518756D01*
X624703Y69697118D01*
X648262Y69883608D01*
X648375Y69891678D01*
X669330Y69959512D01*
X685268Y69979008D01*
X1412791Y70706531D01*
X4267095Y70706531D01*
X4267392Y70701378D01*
X4267392Y70701375D01*
X4273067Y70602959D01*
X4280427Y70475303D01*
X4281564Y70470257D01*
X4281565Y70470251D01*
X4313741Y70327477D01*
X4331346Y70249358D01*
X4333288Y70244576D01*
X4333289Y70244572D01*
X4390114Y70104629D01*
X4418484Y70034763D01*
X4494632Y69910500D01*
X4536299Y69842507D01*
X4539501Y69837281D01*
X4691147Y69662216D01*
X4843785Y69535493D01*
X4863946Y69518756D01*
X4869349Y69514270D01*
X5069322Y69397416D01*
X5285694Y69314791D01*
X5290760Y69313760D01*
X5290761Y69313760D01*
X5329989Y69305779D01*
X5512656Y69268615D01*
X5643324Y69263824D01*
X5738949Y69260317D01*
X5738953Y69260317D01*
X5744113Y69260128D01*
X5749233Y69260784D01*
X5749235Y69260784D01*
X5822270Y69270140D01*
X5973847Y69289558D01*
X5978795Y69291043D01*
X5978802Y69291044D01*
X6190747Y69354631D01*
X6195690Y69356114D01*
X6200324Y69358384D01*
X6399049Y69455738D01*
X6399052Y69455740D01*
X6403684Y69458009D01*
X6592243Y69592506D01*
X6756303Y69755995D01*
X6891458Y69944083D01*
X6899084Y69959512D01*
X6991784Y70147078D01*
X6991785Y70147080D01*
X6994078Y70151720D01*
X7061408Y70373329D01*
X7091640Y70602959D01*
X7093327Y70672000D01*
X7090488Y70706531D01*
X12867095Y70706531D01*
X12867392Y70701378D01*
X12867392Y70701375D01*
X12873067Y70602959D01*
X12880427Y70475303D01*
X12881564Y70470257D01*
X12881565Y70470251D01*
X12913741Y70327477D01*
X12931346Y70249358D01*
X12933288Y70244576D01*
X12933289Y70244572D01*
X12990114Y70104629D01*
X13018484Y70034763D01*
X13094632Y69910500D01*
X13136299Y69842507D01*
X13139501Y69837281D01*
X13291147Y69662216D01*
X13443785Y69535493D01*
X13463946Y69518756D01*
X13469349Y69514270D01*
X13669322Y69397416D01*
X13885694Y69314791D01*
X13890760Y69313760D01*
X13890761Y69313760D01*
X13929989Y69305779D01*
X14112656Y69268615D01*
X14243324Y69263824D01*
X14338949Y69260317D01*
X14338953Y69260317D01*
X14344113Y69260128D01*
X14349233Y69260784D01*
X14349235Y69260784D01*
X14422270Y69270140D01*
X14573847Y69289558D01*
X14578795Y69291043D01*
X14578802Y69291044D01*
X14790747Y69354631D01*
X14795690Y69356114D01*
X14800324Y69358384D01*
X14999049Y69455738D01*
X14999052Y69455740D01*
X15003684Y69458009D01*
X15192243Y69592506D01*
X15356303Y69755995D01*
X15491458Y69944083D01*
X15499084Y69959512D01*
X15591784Y70147078D01*
X15591785Y70147080D01*
X15594078Y70151720D01*
X15661408Y70373329D01*
X15691640Y70602959D01*
X15693327Y70672000D01*
X15676948Y70871225D01*
X15674773Y70897682D01*
X15674772Y70897688D01*
X15674349Y70902833D01*
X15617925Y71127467D01*
X15615866Y71132203D01*
X15527630Y71335132D01*
X15527628Y71335135D01*
X15525570Y71339869D01*
X15399764Y71534335D01*
X15243887Y71705642D01*
X15239836Y71708841D01*
X15239832Y71708845D01*
X15066177Y71845989D01*
X15066172Y71845992D01*
X15062123Y71849190D01*
X15057607Y71851683D01*
X15057604Y71851685D01*
X14863879Y71958627D01*
X14863875Y71958629D01*
X14859355Y71961124D01*
X14854486Y71962848D01*
X14854482Y71962850D01*
X14645903Y72036712D01*
X14645899Y72036713D01*
X14641028Y72038438D01*
X14635935Y72039345D01*
X14635932Y72039346D01*
X14418095Y72078149D01*
X14418089Y72078150D01*
X14413006Y72079055D01*
X14340096Y72079946D01*
X14186581Y72081821D01*
X14186579Y72081821D01*
X14181411Y72081884D01*
X13952464Y72046850D01*
X13732314Y71974894D01*
X13727726Y71972506D01*
X13727722Y71972504D01*
X13665081Y71939895D01*
X13526872Y71867948D01*
X13522739Y71864845D01*
X13522736Y71864843D01*
X13354141Y71738258D01*
X13341655Y71728883D01*
X13181639Y71561436D01*
X13178725Y71557164D01*
X13178724Y71557163D01*
X13163152Y71534335D01*
X13051119Y71370101D01*
X12953602Y71160019D01*
X12891707Y70936831D01*
X12867095Y70706531D01*
X7090488Y70706531D01*
X7076948Y70871225D01*
X7074773Y70897682D01*
X7074772Y70897688D01*
X7074349Y70902833D01*
X7017925Y71127467D01*
X7015866Y71132203D01*
X6927630Y71335132D01*
X6927628Y71335135D01*
X6925570Y71339869D01*
X6799764Y71534335D01*
X6643887Y71705642D01*
X6639836Y71708841D01*
X6639832Y71708845D01*
X6466177Y71845989D01*
X6466172Y71845992D01*
X6462123Y71849190D01*
X6457607Y71851683D01*
X6457604Y71851685D01*
X6263879Y71958627D01*
X6263875Y71958629D01*
X6259355Y71961124D01*
X6254486Y71962848D01*
X6254482Y71962850D01*
X6045903Y72036712D01*
X6045899Y72036713D01*
X6041028Y72038438D01*
X6035935Y72039345D01*
X6035932Y72039346D01*
X5818095Y72078149D01*
X5818089Y72078150D01*
X5813006Y72079055D01*
X5740096Y72079946D01*
X5586581Y72081821D01*
X5586579Y72081821D01*
X5581411Y72081884D01*
X5352464Y72046850D01*
X5132314Y71974894D01*
X5127726Y71972506D01*
X5127722Y71972504D01*
X5065081Y71939895D01*
X4926872Y71867948D01*
X4922739Y71864845D01*
X4922736Y71864843D01*
X4754141Y71738258D01*
X4741655Y71728883D01*
X4581639Y71561436D01*
X4578725Y71557164D01*
X4578724Y71557163D01*
X4563152Y71534335D01*
X4451119Y71370101D01*
X4353602Y71160019D01*
X4291707Y70936831D01*
X4267095Y70706531D01*
X1412791Y70706531D01*
X3210855Y72504595D01*
X3273167Y72538621D01*
X3299950Y72541500D01*
X11167944Y72541500D01*
X11179800Y72540941D01*
X11179803Y72540941D01*
X11187537Y72539212D01*
X11258369Y72541438D01*
X11262327Y72541500D01*
X11291432Y72541500D01*
X11295832Y72542056D01*
X11307664Y72542988D01*
X11353831Y72544438D01*
X11367802Y72548497D01*
X11402955Y72553500D01*
X17390950Y72553500D01*
X17459071Y72533498D01*
X17498383Y72493335D01*
X17569501Y72377281D01*
X17721147Y72202216D01*
X17899349Y72054270D01*
X17903819Y72051658D01*
X17907511Y72049500D01*
X17956232Y71997860D01*
X17969301Y71928076D01*
X17942566Y71862306D01*
X17919589Y71839955D01*
X17896032Y71822268D01*
X17786660Y71740149D01*
X17771655Y71728883D01*
X17611639Y71561436D01*
X17608725Y71557164D01*
X17608724Y71557163D01*
X17593152Y71534335D01*
X17481119Y71370101D01*
X17383602Y71160019D01*
X17321707Y70936831D01*
X17297095Y70706531D01*
X17297392Y70701378D01*
X17297392Y70701375D01*
X17303067Y70602959D01*
X17310427Y70475303D01*
X17311564Y70470257D01*
X17311565Y70470251D01*
X17343741Y70327477D01*
X17361346Y70249358D01*
X17363288Y70244576D01*
X17363289Y70244572D01*
X17420114Y70104629D01*
X17448484Y70034763D01*
X17524632Y69910500D01*
X17566299Y69842507D01*
X17569501Y69837281D01*
X17721147Y69662216D01*
X17873785Y69535493D01*
X17893946Y69518756D01*
X17899349Y69514270D01*
X17903814Y69511661D01*
X17907979Y69509227D01*
X17956700Y69457586D01*
X17969767Y69387802D01*
X17943033Y69322032D01*
X17926323Y69305779D01*
X17915508Y69291289D01*
X17922251Y69278960D01*
X18697189Y68504021D01*
X18711132Y68496408D01*
X18712966Y68496539D01*
X18719580Y68500790D01*
X19498994Y69280205D01*
X19506011Y69293056D01*
X19498237Y69303725D01*
X19496655Y69304975D01*
X19455592Y69362891D01*
X19452359Y69433814D01*
X19487983Y69495226D01*
X19501578Y69506437D01*
X19527054Y69524609D01*
X19622243Y69592506D01*
X19786303Y69755995D01*
X19921458Y69944083D01*
X19929084Y69959512D01*
X20021784Y70147078D01*
X20021785Y70147080D01*
X20024078Y70151720D01*
X20091408Y70373329D01*
X20121640Y70602959D01*
X20123327Y70672000D01*
X20106948Y70871225D01*
X20104773Y70897682D01*
X20104772Y70897688D01*
X20104349Y70902833D01*
X20047925Y71127467D01*
X20045866Y71132203D01*
X19957630Y71335132D01*
X19957628Y71335135D01*
X19955570Y71339869D01*
X19829764Y71534335D01*
X19673887Y71705642D01*
X19669836Y71708841D01*
X19669832Y71708845D01*
X19497077Y71845278D01*
X19456014Y71903195D01*
X19452782Y71974118D01*
X19488407Y72035530D01*
X19502001Y72046739D01*
X19505872Y72049500D01*
X19622243Y72132506D01*
X19786303Y72295995D01*
X19921458Y72484083D01*
X19923748Y72488717D01*
X19923753Y72488725D01*
X19928587Y72498507D01*
X19976700Y72550715D01*
X20025751Y72567688D01*
X20029199Y72568124D01*
X20029203Y72568125D01*
X20037064Y72569118D01*
X20044429Y72572034D01*
X20044433Y72572035D01*
X20080021Y72586126D01*
X20091231Y72589965D01*
X20135600Y72602855D01*
X20154065Y72613775D01*
X20171805Y72622466D01*
X20191756Y72630365D01*
X20229129Y72657518D01*
X20239048Y72664033D01*
X20271977Y72683507D01*
X20271981Y72683510D01*
X20278807Y72687547D01*
X20293971Y72702711D01*
X20309005Y72715552D01*
X20319943Y72723499D01*
X20326357Y72728159D01*
X20355803Y72763753D01*
X20363792Y72772532D01*
X23267605Y75676345D01*
X23276385Y75684335D01*
X23276387Y75684337D01*
X23283080Y75688584D01*
X23331605Y75740258D01*
X23334359Y75743099D01*
X23354927Y75763667D01*
X23357647Y75767174D01*
X23365353Y75776196D01*
X23391544Y75804087D01*
X23396972Y75809867D01*
X23400794Y75816819D01*
X23407303Y75828658D01*
X23418157Y75845182D01*
X23426443Y75855865D01*
X23426444Y75855866D01*
X23431304Y75862132D01*
X23449654Y75904536D01*
X23454869Y75915181D01*
X23477124Y75955663D01*
X23479094Y75963337D01*
X23479097Y75963344D01*
X23482455Y75976426D01*
X23488861Y75995138D01*
X23494233Y76007552D01*
X23497380Y76014823D01*
X23501491Y76040777D01*
X23504607Y76060456D01*
X23507012Y76072070D01*
X23518500Y76116812D01*
X23518500Y76138258D01*
X23520051Y76157968D01*
X23522166Y76171322D01*
X23522166Y76171323D01*
X23523406Y76179152D01*
X23519059Y76225141D01*
X23518500Y76236996D01*
X23518500Y79041397D01*
X23538502Y79109518D01*
X23592158Y79156011D01*
X23662432Y79166115D01*
X23724815Y79138482D01*
G37*
%TD.AperFunction*%
%TA.AperFunction,Conductor*%
G36*
X27849820Y78408218D02*
G01*
X27850324Y78409120D01*
X28014409Y78317416D01*
X28193180Y78259330D01*
X28379830Y78237073D01*
X28382630Y78237288D01*
X28449212Y78216213D01*
X28467979Y78200761D01*
X28504595Y78164145D01*
X28538621Y78101833D01*
X28541500Y78075050D01*
X28541500Y60083050D01*
X28521498Y60014929D01*
X28467842Y59968436D01*
X28397568Y59958332D01*
X28349385Y59975790D01*
X28248762Y60037814D01*
X28235576Y60043963D01*
X28081290Y60095138D01*
X28067914Y60098005D01*
X27973562Y60107672D01*
X27967145Y60108000D01*
X27467115Y60108000D01*
X27451876Y60103525D01*
X27450671Y60102135D01*
X27449000Y60094452D01*
X27449000Y58622000D01*
X27428998Y58553879D01*
X27375342Y58507386D01*
X27323000Y58496000D01*
X25730116Y58496000D01*
X25714877Y58491525D01*
X25713672Y58490135D01*
X25712001Y58482452D01*
X25712001Y58102905D01*
X25712338Y58096386D01*
X25722257Y58000794D01*
X25725149Y57987400D01*
X25776588Y57833216D01*
X25782761Y57820038D01*
X25868063Y57682193D01*
X25877099Y57670792D01*
X25991829Y57556261D01*
X26003243Y57547247D01*
X26142713Y57461277D01*
X26190207Y57408505D01*
X26201631Y57338434D01*
X26173357Y57273310D01*
X26163574Y57262851D01*
X26048865Y57153424D01*
X25911246Y56968458D01*
X25910656Y56967298D01*
X25858664Y56920750D01*
X25804471Y56908500D01*
X24374950Y56908500D01*
X24306829Y56928502D01*
X24285855Y56945405D01*
X23995405Y57235855D01*
X23961379Y57298167D01*
X23958500Y57324950D01*
X23958500Y59022115D01*
X25712000Y59022115D01*
X25716475Y59006876D01*
X25717865Y59005671D01*
X25725548Y59004000D01*
X26922885Y59004000D01*
X26938124Y59008475D01*
X26939329Y59009865D01*
X26941000Y59017548D01*
X26941000Y60089884D01*
X26936525Y60105123D01*
X26935135Y60106328D01*
X26927452Y60107999D01*
X26422905Y60107999D01*
X26416386Y60107662D01*
X26320794Y60097743D01*
X26307400Y60094851D01*
X26153216Y60043412D01*
X26140038Y60037239D01*
X26002193Y59951937D01*
X25990792Y59942901D01*
X25876261Y59828171D01*
X25867249Y59816760D01*
X25782184Y59678757D01*
X25776037Y59665576D01*
X25724862Y59511290D01*
X25721995Y59497914D01*
X25712328Y59403562D01*
X25712000Y59397146D01*
X25712000Y59022115D01*
X23958500Y59022115D01*
X23958500Y67775050D01*
X23978502Y67843171D01*
X23995405Y67864145D01*
X27407605Y71276345D01*
X27416385Y71284335D01*
X27416387Y71284337D01*
X27423080Y71288584D01*
X27471605Y71340258D01*
X27474359Y71343099D01*
X27494927Y71363667D01*
X27497647Y71367174D01*
X27505353Y71376196D01*
X27531544Y71404087D01*
X27536972Y71409867D01*
X27542775Y71420423D01*
X27547303Y71428658D01*
X27558157Y71445182D01*
X27566443Y71455865D01*
X27566444Y71455866D01*
X27571304Y71462132D01*
X27589654Y71504536D01*
X27594869Y71515181D01*
X27617124Y71555663D01*
X27619094Y71563337D01*
X27619097Y71563344D01*
X27622455Y71576426D01*
X27628861Y71595138D01*
X27632057Y71602523D01*
X27637380Y71614823D01*
X27644608Y71660459D01*
X27647012Y71672070D01*
X27655632Y71705642D01*
X27656529Y71709135D01*
X27656529Y71709136D01*
X27658500Y71716812D01*
X27658500Y71738258D01*
X27660051Y71757968D01*
X27662166Y71771322D01*
X27662166Y71771323D01*
X27663406Y71779152D01*
X27659059Y71825141D01*
X27658500Y71836996D01*
X27658500Y78302158D01*
X27678502Y78370279D01*
X27732158Y78416772D01*
X27802432Y78426876D01*
X27849820Y78408218D01*
G37*
%TD.AperFunction*%
%TA.AperFunction,Conductor*%
G36*
X14743171Y81021498D02*
G01*
X14764145Y81004595D01*
X17707572Y78061168D01*
X17741598Y77998856D01*
X17736533Y77928041D01*
X17693986Y77871205D01*
X17676853Y77860412D01*
X17578084Y77808776D01*
X17572621Y77805920D01*
X17426128Y77688136D01*
X17305302Y77544141D01*
X17302338Y77538749D01*
X17302335Y77538745D01*
X17243422Y77431581D01*
X17214746Y77379420D01*
X17212885Y77373553D01*
X17212884Y77373551D01*
X17204687Y77347710D01*
X17165024Y77288826D01*
X17099821Y77260734D01*
X17028856Y77272803D01*
X16964587Y77304497D01*
X16955960Y77307983D01*
X16715998Y77384795D01*
X16706938Y77386971D01*
X16458260Y77427471D01*
X16448973Y77428283D01*
X16197053Y77431581D01*
X16187742Y77431011D01*
X15938097Y77397036D01*
X15928978Y77395098D01*
X15687098Y77324596D01*
X15678367Y77321333D01*
X15449558Y77215849D01*
X15441406Y77211330D01*
X15262353Y77093938D01*
X15253216Y77083197D01*
X15257789Y77073421D01*
X17699913Y74631297D01*
X17712293Y74624537D01*
X17720634Y74630781D01*
X17846765Y74826873D01*
X17851212Y74835064D01*
X17954691Y75064778D01*
X17957882Y75073545D01*
X18026269Y75316024D01*
X18028129Y75325166D01*
X18060116Y75576604D01*
X18060597Y75582892D01*
X18062847Y75668840D01*
X18062696Y75675149D01*
X18053246Y75802313D01*
X18068145Y75871729D01*
X18118208Y75922070D01*
X18187540Y75937354D01*
X18254129Y75912729D01*
X18267995Y75900746D01*
X18776341Y75392400D01*
X18784331Y75383619D01*
X18784339Y75383610D01*
X18788584Y75376920D01*
X18794359Y75371497D01*
X18840273Y75328381D01*
X18843115Y75325626D01*
X18863667Y75305074D01*
X18866801Y75302643D01*
X18867163Y75302362D01*
X18876191Y75294652D01*
X18909867Y75263028D01*
X18916818Y75259207D01*
X18916819Y75259206D01*
X18928655Y75252699D01*
X18945184Y75241842D01*
X18955869Y75233553D01*
X18955871Y75233552D01*
X18962131Y75228696D01*
X19004544Y75210343D01*
X19015181Y75205132D01*
X19055663Y75182876D01*
X19063342Y75180904D01*
X19063343Y75180904D01*
X19076434Y75177543D01*
X19095136Y75171141D01*
X19114823Y75162621D01*
X19122652Y75161381D01*
X19160448Y75155395D01*
X19172074Y75152987D01*
X19209135Y75143471D01*
X19209136Y75143471D01*
X19216812Y75141500D01*
X19238258Y75141500D01*
X19257968Y75139949D01*
X19279151Y75136594D01*
X19325140Y75140941D01*
X19336995Y75141500D01*
X20566050Y75141500D01*
X20634171Y75121498D01*
X20680664Y75067842D01*
X20690768Y74997568D01*
X20661274Y74932988D01*
X20655145Y74926405D01*
X19910446Y74181706D01*
X19848134Y74147680D01*
X19777319Y74152745D01*
X19728158Y74186001D01*
X19677369Y74241817D01*
X19677359Y74241826D01*
X19673887Y74245642D01*
X19599948Y74304035D01*
X19496177Y74385989D01*
X19496172Y74385992D01*
X19492123Y74389190D01*
X19487607Y74391683D01*
X19487604Y74391685D01*
X19293879Y74498627D01*
X19293875Y74498629D01*
X19289355Y74501124D01*
X19284486Y74502848D01*
X19284482Y74502850D01*
X19075903Y74576712D01*
X19075899Y74576713D01*
X19071028Y74578438D01*
X19065935Y74579345D01*
X19065932Y74579346D01*
X18848095Y74618149D01*
X18848089Y74618150D01*
X18843006Y74619055D01*
X18770096Y74619946D01*
X18616581Y74621821D01*
X18616579Y74621821D01*
X18611411Y74621884D01*
X18382464Y74586850D01*
X18162314Y74514894D01*
X18157726Y74512506D01*
X18157722Y74512504D01*
X18036024Y74449152D01*
X17956872Y74407948D01*
X17952739Y74404845D01*
X17952736Y74404843D01*
X17792885Y74284823D01*
X17771655Y74268883D01*
X17611639Y74101436D01*
X17608725Y74097164D01*
X17608724Y74097163D01*
X17491621Y73925496D01*
X17436710Y73880493D01*
X17387533Y73870500D01*
X17171463Y73870500D01*
X17103342Y73890502D01*
X17056849Y73944158D01*
X17046745Y74014432D01*
X17076239Y74079012D01*
X17113277Y74108260D01*
X17118002Y74110720D01*
X17332249Y74243300D01*
X17339188Y74248342D01*
X17347518Y74260981D01*
X17341456Y74271334D01*
X16312812Y75299978D01*
X16298868Y75307592D01*
X16297035Y75307461D01*
X16290420Y75303210D01*
X15262270Y74275060D01*
X15255612Y74262867D01*
X15264325Y74251347D01*
X15362018Y74179716D01*
X15369928Y74174773D01*
X15496827Y74108008D01*
X15547799Y74058588D01*
X15563962Y73989456D01*
X15540183Y73922560D01*
X15484012Y73879139D01*
X15438159Y73870500D01*
X13150919Y73870500D01*
X13082798Y73890502D01*
X13036305Y73944158D01*
X13026201Y74014432D01*
X13048983Y74070561D01*
X13051546Y74074089D01*
X13056972Y74079867D01*
X13067300Y74098653D01*
X13078157Y74115182D01*
X13086446Y74125868D01*
X13091304Y74132131D01*
X13109659Y74174545D01*
X13114873Y74185188D01*
X13133304Y74218714D01*
X13133304Y74218715D01*
X13137124Y74225663D01*
X13139095Y74233340D01*
X13139097Y74233345D01*
X13142455Y74246426D01*
X13148861Y74265138D01*
X13150482Y74268883D01*
X13157380Y74284823D01*
X13164608Y74330459D01*
X13167012Y74342070D01*
X13178500Y74386812D01*
X13178500Y74408258D01*
X13180051Y74427968D01*
X13182166Y74441322D01*
X13182166Y74441323D01*
X13183406Y74449152D01*
X13179059Y74495141D01*
X13178500Y74506996D01*
X13178500Y75713477D01*
X14537898Y75713477D01*
X14549987Y75461825D01*
X14551124Y75452565D01*
X14600274Y75205465D01*
X14602768Y75196472D01*
X14687900Y74959361D01*
X14691700Y74950826D01*
X14810946Y74728899D01*
X14815957Y74721032D01*
X14879446Y74636010D01*
X14890704Y74627561D01*
X14903123Y74634333D01*
X15927978Y75659188D01*
X15935592Y75673132D01*
X15935461Y75674965D01*
X15931210Y75681580D01*
X14901321Y76711469D01*
X14888013Y76718736D01*
X14877974Y76711614D01*
X14867761Y76699334D01*
X14862346Y76691742D01*
X14731646Y76476354D01*
X14727408Y76468037D01*
X14629981Y76235701D01*
X14627020Y76226851D01*
X14565006Y75982669D01*
X14563384Y75973472D01*
X14538143Y75722802D01*
X14537898Y75713477D01*
X13178500Y75713477D01*
X13178500Y78078067D01*
X13198502Y78146188D01*
X13239773Y78186093D01*
X13243684Y78188009D01*
X13247893Y78191011D01*
X13247896Y78191013D01*
X13334755Y78252969D01*
X13432243Y78322506D01*
X13596303Y78485995D01*
X13731458Y78674083D01*
X13741277Y78693949D01*
X13831784Y78877078D01*
X13831785Y78877080D01*
X13834078Y78881720D01*
X13901408Y79103329D01*
X13931640Y79332959D01*
X13933327Y79402000D01*
X13917899Y79589658D01*
X13914773Y79627682D01*
X13914772Y79627688D01*
X13914349Y79632833D01*
X13880797Y79766408D01*
X13859184Y79852456D01*
X13859183Y79852460D01*
X13857925Y79857467D01*
X13855866Y79862203D01*
X13767630Y80065132D01*
X13767628Y80065135D01*
X13765570Y80069869D01*
X13639764Y80264335D01*
X13483887Y80435642D01*
X13479836Y80438841D01*
X13479832Y80438845D01*
X13367878Y80527260D01*
X13326815Y80585177D01*
X13323583Y80656100D01*
X13359208Y80717511D01*
X13422379Y80749914D01*
X13460889Y80751256D01*
X13478349Y80749174D01*
X13579830Y80737073D01*
X13585965Y80737545D01*
X13585967Y80737545D01*
X13761105Y80751021D01*
X13761109Y80751022D01*
X13767247Y80751494D01*
X13859117Y80777145D01*
X13942350Y80800384D01*
X13942353Y80800385D01*
X13948294Y80802044D01*
X13953798Y80804824D01*
X13953800Y80804825D01*
X14110574Y80884017D01*
X14110576Y80884018D01*
X14116075Y80886796D01*
X14243842Y80986618D01*
X14259338Y80998725D01*
X14259339Y80998726D01*
X14264199Y81002523D01*
X14267911Y81006824D01*
X14330888Y81039239D01*
X14354653Y81041500D01*
X14675050Y81041500D01*
X14743171Y81021498D01*
G37*
%TD.AperFunction*%
%TA.AperFunction,Conductor*%
G36*
X20443171Y87621498D02*
G01*
X20464145Y87604595D01*
X21575547Y86493193D01*
X26304595Y81764146D01*
X26338621Y81701834D01*
X26341500Y81675051D01*
X26341500Y78693949D01*
X26321498Y78625828D01*
X26267842Y78579335D01*
X26197568Y78569231D01*
X26132988Y78598725D01*
X26126405Y78604854D01*
X25592778Y79138482D01*
X24895405Y79835855D01*
X24861379Y79898167D01*
X24858500Y79924950D01*
X24858500Y80449062D01*
X24878502Y80517183D01*
X24889119Y80531393D01*
X24982994Y80640148D01*
X24982995Y80640150D01*
X24987023Y80644816D01*
X25079870Y80808256D01*
X25139203Y80986618D01*
X25162762Y81173108D01*
X25163138Y81200000D01*
X25144795Y81387074D01*
X25138696Y81407277D01*
X25111343Y81497873D01*
X25090465Y81567023D01*
X25002218Y81732992D01*
X24883415Y81878660D01*
X24829603Y81923177D01*
X24743329Y81994550D01*
X24743324Y81994553D01*
X24738580Y81998478D01*
X24733161Y82001408D01*
X24733158Y82001410D01*
X24661851Y82039965D01*
X24573231Y82087881D01*
X24393666Y82143466D01*
X24387541Y82144110D01*
X24387540Y82144110D01*
X24212852Y82162471D01*
X24212851Y82162471D01*
X24206724Y82163115D01*
X24129673Y82156103D01*
X24025665Y82146637D01*
X24025662Y82146636D01*
X24019526Y82146078D01*
X24013620Y82144340D01*
X24013616Y82144339D01*
X23880278Y82105095D01*
X23839202Y82093006D01*
X23702874Y82021736D01*
X23633240Y82007902D01*
X23567179Y82033912D01*
X23525667Y82091508D01*
X23518500Y82133398D01*
X23518500Y82467944D01*
X23519059Y82479800D01*
X23519059Y82479803D01*
X23520788Y82487537D01*
X23518562Y82558369D01*
X23518500Y82562327D01*
X23518500Y82591432D01*
X23517944Y82595832D01*
X23517012Y82607670D01*
X23515811Y82645906D01*
X23515562Y82653831D01*
X23509580Y82674421D01*
X23505570Y82693784D01*
X23503875Y82707204D01*
X23503875Y82707205D01*
X23502882Y82715064D01*
X23499966Y82722429D01*
X23499965Y82722433D01*
X23485874Y82758021D01*
X23482035Y82769231D01*
X23469145Y82813600D01*
X23458229Y82832057D01*
X23449534Y82849807D01*
X23441635Y82869756D01*
X23414477Y82907136D01*
X23407960Y82917057D01*
X23384452Y82956807D01*
X23369291Y82971968D01*
X23356449Y82987003D01*
X23355626Y82988136D01*
X23343841Y83004357D01*
X23308241Y83033808D01*
X23299462Y83041797D01*
X21572505Y84768755D01*
X21538479Y84831067D01*
X21536201Y84845555D01*
X21519397Y85016939D01*
X21519396Y85016944D01*
X21518795Y85023074D01*
X21464465Y85203023D01*
X21376218Y85368992D01*
X21257415Y85514660D01*
X21203603Y85559177D01*
X21117329Y85630550D01*
X21117324Y85630553D01*
X21112580Y85634478D01*
X21107161Y85637408D01*
X21107158Y85637410D01*
X21037671Y85674981D01*
X20947231Y85723881D01*
X20767666Y85779466D01*
X20761541Y85780110D01*
X20761540Y85780110D01*
X20580724Y85799115D01*
X20580984Y85801591D01*
X20523469Y85818921D01*
X20477356Y85872904D01*
X20471714Y85888018D01*
X20455063Y85943171D01*
X20448465Y85965023D01*
X20360218Y86130992D01*
X20241415Y86276660D01*
X20187603Y86321177D01*
X20101329Y86392550D01*
X20101324Y86392553D01*
X20096580Y86396478D01*
X20091161Y86399408D01*
X20091158Y86399410D01*
X19995217Y86451284D01*
X19931231Y86485881D01*
X19751666Y86541466D01*
X19745541Y86542110D01*
X19745540Y86542110D01*
X19570852Y86560471D01*
X19570851Y86560471D01*
X19564724Y86561115D01*
X19495534Y86554818D01*
X19383665Y86544637D01*
X19383662Y86544636D01*
X19377526Y86544078D01*
X19371620Y86542340D01*
X19371616Y86542339D01*
X19238278Y86503095D01*
X19197202Y86491006D01*
X19191742Y86488152D01*
X19191743Y86488152D01*
X19049832Y86413963D01*
X19030621Y86403920D01*
X18884128Y86286136D01*
X18880170Y86281418D01*
X18880167Y86281416D01*
X18792797Y86177292D01*
X18763302Y86142141D01*
X18760338Y86136749D01*
X18760335Y86136745D01*
X18754176Y86125541D01*
X18672746Y85977420D01*
X18670885Y85971553D01*
X18670884Y85971551D01*
X18656828Y85927240D01*
X18615909Y85798248D01*
X18594956Y85611448D01*
X18595472Y85605304D01*
X18609929Y85433142D01*
X18610685Y85424135D01*
X18662497Y85243445D01*
X18665312Y85237968D01*
X18665313Y85237965D01*
X18739704Y85093215D01*
X18748418Y85076260D01*
X18752241Y85071436D01*
X18752244Y85071432D01*
X18797245Y85014656D01*
X18823883Y84948846D01*
X18824500Y84936391D01*
X18824500Y83459500D01*
X18804498Y83391379D01*
X18750842Y83344886D01*
X18698500Y83333500D01*
X16661636Y83333500D01*
X16593515Y83353502D01*
X16547022Y83407158D01*
X16536918Y83477432D01*
X16537887Y83482661D01*
X16539203Y83486618D01*
X16562762Y83673108D01*
X16563138Y83700000D01*
X16544795Y83887074D01*
X16542303Y83895330D01*
X16492246Y84061123D01*
X16490465Y84067023D01*
X16402218Y84232992D01*
X16339691Y84309658D01*
X16286857Y84374440D01*
X16259303Y84439872D01*
X16258500Y84454075D01*
X16258500Y85875050D01*
X16278502Y85943171D01*
X16295405Y85964145D01*
X17935855Y87604595D01*
X17998167Y87638621D01*
X18024950Y87641500D01*
X20375050Y87641500D01*
X20443171Y87621498D01*
G37*
%TD.AperFunction*%
%TA.AperFunction,Conductor*%
G36*
X22169297Y82244336D02*
G01*
X22199892Y82180270D01*
X22201500Y82160204D01*
X22201500Y81665768D01*
X22181498Y81597647D01*
X22127842Y81551154D01*
X22057568Y81541050D01*
X21992988Y81570544D01*
X21986405Y81576673D01*
X21866213Y81696865D01*
X21832187Y81759177D01*
X21837252Y81829992D01*
X21845751Y81848196D01*
X21876825Y81902896D01*
X21879870Y81908256D01*
X21939203Y82086618D01*
X21950494Y82175996D01*
X21978876Y82241073D01*
X22037935Y82280474D01*
X22108921Y82281691D01*
X22169297Y82244336D01*
G37*
%TD.AperFunction*%
%TD*%
M02*
